<?xml version="1.0"?>
<svg xmlns="http://www.w3.org/2000/svg" style="height: 512px; width: 512px;" viewBox="0 0 512 512">
  <g class="" style="touch-action: none;" transform="translate(0,0)">
    <g>
      <path d="M255.76 44.764C249.584 44.764 243.407 46.148 238.623 48.916L85.87 137.276C76.3 142.812 76.3 151.566 85.87 157.102L238.623 245.462C248.193 250.998 263.326 250.998 272.895 245.462L425.648 157.102C435.218 151.567 435.218 142.812 425.648 137.277L272.895 48.917C268.11 46.147 261.935 44.764 255.76 44.764Z" class="" fill="#000000" fill-opacity="1"/>
      <path d="M257.62 57.187C265.603 57.395 273.164 59.37 278.814 62.723C296.045 73.139 287.812 90.717 263.995 94.364C253.146 96.025 241.623 94.192 233.627 89.535C216.236 79.213 224.198 61.591 247.958 57.815C251.105 57.315 254.364 57.104 257.619 57.188Z" class="" fill="#ffffff" fill-opacity="1"/>
      <path d="M138.447 127.375C138.447 127.375 138.449 127.375 138.449 127.375C146.432 127.583 153.994 129.557 159.644 132.91C177.037 143.231 169.078 160.854 145.318 164.631C134.291 166.384 122.526 164.513 114.454 159.723C97.062 149.402 105.021 131.78 128.781 128.003C131.93 127.502 135.189 127.29 138.446 127.375Z" class="" fill="#ffffff" fill-opacity="1"/>
      <path d="M256.687 127.619C281.282 127.835 296.259 143.769 283.646 156.299C282.296 157.64 280.673 158.877 278.812 159.981C261.581 170.397 231.809 165.838 225.223 151.776C222.11 145.129 225.327 138.002 233.625 133.169C239.732 129.546 248.05 127.544 256.685 127.619Z" class="" fill="#ffffff" fill-opacity="1"/>
      <path d="M376.35 127.634C376.35 127.634 376.352 127.634 376.352 127.634C384.335 127.842 391.897 129.816 397.547 133.169C414.862 143.535 406.773 161.137 382.985 164.852C372.043 166.56 360.393 164.708 352.357 159.981C334.966 149.659 342.928 132.037 366.688 128.261C369.836 127.761 373.094 127.55 376.35 127.634Z" class="" fill="#ffffff" fill-opacity="1"/>
      <path d="M75.67 173.84C69.917 173.685 66.006 178.176 66.006 186.12L66.006 343.816C66.006 354.868 73.576 367.979 83.146 373.506L230.076 458.354C239.646 463.88 247.216 459.51 247.216 448.459L247.216 290.76C247.216 279.708 239.646 266.6 230.076 261.072L83.146 176.225C80.456 174.67 77.921 173.898 75.67 173.838Z" class="" fill="#000000" fill-opacity="1"/>
      <path d="M436.443 173.842C434.193 173.902 431.66 174.672 428.969 176.227L282.034 261.074C272.464 266.601 264.894 279.712 264.894 290.764L264.894 448.464C264.894 459.514 272.464 463.882 282.034 458.354L428.97 373.51C438.54 367.983 446.107 354.874 446.107 343.822L446.107 186.122C446.107 178.18 442.197 173.69 436.443 173.844Z" class="" fill="#000000" fill-opacity="1"/>
      <!-- <path d="M89.297 195.77C104.267 194.732 123.054 217.533 123.115 236.813C123.115 236.86 123.115 236.906 123.115 236.953C123.135 256.21 104.398 257.445 89.388 239.176C82.405 230.678 78.105 219.92 78.115 210.973C78.098 202.044 82.359 196.251 89.297 195.77Z" class="" fill="#000000" fill-opacity="1"/>
      <path d="M422.817 195.77C429.755 196.251 434.017 202.044 434 210.973C433.98 230.23 415.217 253.065 400.227 252.077C393.287 251.62 389.01 245.858 389 236.953C388.964 217.729 407.691 194.846 422.709 195.763C422.745 195.765 422.782 195.767 422.818 195.77Z" class="" fill="#000000" fill-opacity="1"/> -->
      <path d="M257.619 198.084C265.601 198.292 273.163 200.267 278.813 203.619C296.044 214.035 287.811 231.613 263.994 235.26C253.145 236.921 241.622 235.088 233.626 230.431C216.234 220.11 224.193 202.488 247.953 198.711C251.102 198.21 254.361 197.998 257.618 198.083Z" class="selected" fill="#ffffff" fill-opacity="1"/>
      <!-- <path d="M366.817 228.102C373.755 228.583 378.017 234.376 378 243.305C377.98 262.562 359.217 285.397 344.227 284.409C337.287 283.952 333.01 278.19 333 269.285C332.964 250.061 351.691 227.178 366.709 228.095C366.745 228.097 366.782 228.099 366.818 228.102Z" class="" fill="#000000" fill-opacity="1"/>
      <path d="M201.297 260.434C216.267 259.397 235.054 282.199 235.114 301.478C235.114 301.525 235.114 301.571 235.114 301.617C235.134 320.874 216.397 322.109 201.387 303.84C194.404 295.342 190.104 284.584 190.114 275.637C190.097 266.708 194.358 260.915 201.296 260.434Z" class="" fill="#000000" fill-opacity="1"/>
      <path d="M310.817 260.434C317.755 260.915 322.017 266.708 322 275.637C321.98 294.894 303.217 317.729 288.227 316.741C281.287 316.284 277.01 310.522 277 301.617C276.964 282.393 295.691 259.51 310.709 260.427C310.745 260.429 310.782 260.431 310.818 260.434Z" class="" fill="#000000" fill-opacity="1"/>
      <path d="M89.298 318.48C104.268 317.443 123.055 340.245 123.115 359.524C123.115 359.571 123.115 359.618 123.115 359.664C123.135 378.921 104.398 380.156 89.388 361.887C82.405 353.389 78.105 342.631 78.115 333.684C78.098 324.755 82.359 318.961 89.297 318.48Z" class="" fill="#000000" fill-opacity="1"/>
      <path d="M422.818 318.48C429.756 318.961 434.017 324.755 434 333.684C433.98 352.941 415.217 375.776 400.227 374.788C393.287 374.331 389.01 368.569 389 359.664C388.963 340.441 407.69 317.557 422.708 318.473C422.745 318.475 422.781 318.477 422.818 318.48Z" class="" fill="#000000" fill-opacity="1"/>
      <path d="M366.818 350.812C373.756 351.293 378.017 357.087 378 366.017C377.98 385.274 359.217 408.109 344.227 407.121C337.287 406.664 333.01 400.902 333 391.997C332.964 372.773 351.691 349.89 366.709 350.807C366.745 350.809 366.782 350.811 366.818 350.814Z" class="" fill="#000000" fill-opacity="1"/>
      <path d="M201.298 383.142C216.268 382.105 235.055 404.907 235.115 424.186C235.115 424.233 235.115 424.28 235.115 424.326C235.135 443.583 216.398 444.818 201.388 426.549C194.405 418.051 190.105 407.293 190.115 398.346C190.098 389.417 194.359 383.624 201.297 383.143Z" class="" fill="#000000" fill-opacity="1"/>
      <path d="M310.818 383.142C317.756 383.623 322.017 389.417 322 398.347C321.98 417.604 303.217 440.439 288.227 439.451C281.287 438.994 277.01 433.232 277 424.327C276.964 405.103 295.691 382.22 310.709 383.137C310.745 383.139 310.782 383.141 310.818 383.144Z" class="" fill="#000000" fill-opacity="1"/> -->
    </g>
  </g>
</svg>
