<?xml version="1.0"?>
<svg xmlns="http://www.w3.org/2000/svg" viewBox="-26 1 511 511.99994">
  <path d="m410.941406 189.394531-115.855468-14.546875c9.734374-23.257812 21.015624-60.167968 21.015624-106.300781 0-25.863281-8.300781-44.929687-24.671874-56.664063-11-7.882812-25.140626-11.882812-42.023438-11.882812h-.835938l-.828124.09375c-27.738282 3.09375-36.089844 29.019531-34.96875 45.910156.140624 4.351563-.320313 8.617188-1.367188 12.675782-3.09375 11.96875-8.210938 21.945312-20.574219 46.050781l-.578125 1.121093c-8.257812 16.125-17.746094 21.917969-30.875 29.9375-11.183594 6.832032-23.859375 14.570313-37.535156 29.53125-6.1875 6.753907-13.3125 16.628907-19.640625 27.21875-1.148437 1.53125-2.121094 3.261719-2.941406 5.207032-.101563.199218-.210938.378906-.316407.558594-.300781.527343-.703124 1.226562-1.128906 2.070312-.632812 1.167969-1.335937 2.472656-2.058594 3.855469-11.875 10.308593-30.230468 10.113281-41.386718 9.988281-1.148438-.011719-2.207032-.023438-3.164063-.023438-19.558593 0-31.128906 7.671876-37.386719 14.109376-8.710937 8.949218-13.3125 21.601562-13.3125 36.585937l-.007812 163.210937c0 10.75 1.367188 26.273438 13.199219 36.980469 11.046875 10 26.699219 11.15625 37.507812 11.15625h35.699219c8.761719 0 17.207031 3.761719 27.90625 8.527344 6.042969 2.691406 12.894531 5.742187 20.734375 8.496094 36.800781 12.75 85.777344 18.6875 154.125 18.6875 13.246094 0 54.332031.050781 54.351563.050781 14.816406 0 28.761718-5.816406 40.320312-16.816406 6.125-5.820313 9.847656-13.140625 11.375-22.375.335938-2.042969.558594-6.347656.582031-8.679688.234375-5.851562-.625-11.417968-2.46875-16.53125 11.871094-1.339844 23.070313-6.464844 31.632813-14.644531 10.503906-10.039063 16.289062-23.984375 16.289062-39.273437 0-11.207032-3.550781-21.792969-10.125-30.488282 3.882813-1.914062 7.5625-4.390625 10.84375-7.582031 8.507813-8.273437 12.90625-19.742187 13.085938-34.09375.546875-14.316406-4.4375-26.765625-13.8125-35.964844 9.917968-9.894531 16.433594-24.066406 17.109375-39.78125 1.277343-29.636719-20.160157-54.773437-47.914063-56.375zm0 0" fill="#ffffff" fill-opacity="1"/>
</svg>
