<svg id="Layer_1" data-name="Layer 1" xmlns="http://www.w3.org/2000/svg" xmlns:xlink="http://www.w3.org/1999/xlink" viewBox="0 0 492.61 504.12"><defs><style>.cls-1{fill:none;}.cls-2{fill:url(#linear-gradient);}.cls-3{fill:url(#linear-gradient-2);}.cls-4{fill:#666;}.cls-5{fill:#231f20;}.cls-6{fill:#075d72;}.cls-7{fill:#f37c20;}.cls-8{fill:url(#linear-gradient-3);}.cls-9{opacity:0.52;}.cls-10,.cls-32{fill:#fff;}.cls-11{fill:url(#linear-gradient-4);}.cls-12{fill:url(#linear-gradient-5);}.cls-13{clip-path:url(#clip-path);}.cls-14{fill:#536fb4;}.cls-15{fill:#667bbb;}.cls-16,.cls-17,.cls-18,.cls-19,.cls-20,.cls-21,.cls-22,.cls-23,.cls-24,.cls-25,.cls-26,.cls-27,.cls-28,.cls-29,.cls-30,.cls-31,.cls-32,.cls-33{fill-rule:evenodd;}.cls-16{fill:url(#linear-gradient-6);}.cls-17{fill:url(#linear-gradient-7);}.cls-18{fill:url(#radial-gradient);}.cls-19{fill:#ffd72c;}.cls-20{fill:#8bc6ec;}.cls-21{fill:#e1b32a;}.cls-22{fill:url(#linear-gradient-8);}.cls-23{fill:url(#linear-gradient-9);}.cls-24{fill:url(#linear-gradient-10);}.cls-25{fill:url(#linear-gradient-11);}.cls-26{fill:url(#linear-gradient-12);}.cls-27{fill:#f4d8ab;}.cls-28{fill:#f4efc5;}.cls-29{fill:url(#radial-gradient-2);}.cls-30{fill:#c8ccd2;}.cls-31{fill:#c33047;}.cls-33{fill:#e92a50;}.cls-34{fill:#000212;}.cls-35{fill:url(#linear-gradient-13);}</style><linearGradient id="linear-gradient" x1="388.9" y1="480.72" x2="864.2" y2="480.72" gradientUnits="userSpaceOnUse"><stop offset="0" stop-color="#f4f5f6"/><stop offset="0.21" stop-color="#d3d4d4"/><stop offset="0.45" stop-color="#b3b3b3"/></linearGradient><linearGradient id="linear-gradient-2" x1="839.24" y1="480.72" x2="409.41" y2="480.72" gradientUnits="userSpaceOnUse"><stop offset="0" stop-color="#f4f5f6"/><stop offset="0.23" stop-color="#e9ebed"/><stop offset="1" stop-color="#c8ccd2"/></linearGradient><linearGradient id="linear-gradient-3" x1="631.99" y1="348.46" x2="631.99" y2="584.75" gradientUnits="userSpaceOnUse"><stop offset="0" stop-color="#fff"/><stop offset="1" stop-color="#f37c20"/></linearGradient><linearGradient id="linear-gradient-4" x1="652.6" y1="419.73" x2="672.66" y2="419.73" xlink:href="#linear-gradient-2"/><linearGradient id="linear-gradient-5" x1="632.19" y1="336.1" x2="632.19" y2="592.94" gradientTransform="translate(-2.11 2.63) rotate(-0.22)" xlink:href="#linear-gradient-3"/><clipPath id="clip-path" transform="translate(-380.25 -228.66)"><path class="cls-1" d="M709.37,314.82c65.1,30.24,110.4,97.87,110.07,176.05C819,596.8,734.94,682.59,632.11,682.11h0c-102.83-.44-186.14-87-185.68-192.92a109.15,109.15,0,0,1,1.2-17.64l-58.29-20.78L405,432.3l-27.65-13.08L473,370,430.45,353,459.59,340l94.15-83.13,43.34,3.85,79.2,16.15,20.18,24.63Z"/></clipPath><linearGradient id="linear-gradient-6" x1="555.27" y1="405.3" x2="703.63" y2="472.16" gradientUnits="userSpaceOnUse"><stop offset="0" stop-color="#f5f6e2"/><stop offset="0.32" stop-color="#f5eed1"/><stop offset="1" stop-color="#f6ddb0"/></linearGradient><linearGradient id="linear-gradient-7" x1="542.86" y1="438.87" x2="703.51" y2="508.39" xlink:href="#linear-gradient-6"/><radialGradient id="radial-gradient" cx="498.94" cy="450.6" r="21" gradientTransform="translate(-1691.19 -1712.41) scale(4.56 4.67)" gradientUnits="userSpaceOnUse"><stop offset="0" stop-color="#ffe9cc"/><stop offset="0.34" stop-color="#f4d8b9"/><stop offset="1" stop-color="#e0bb98"/></radialGradient><linearGradient id="linear-gradient-8" x1="568.83" y1="500.7" x2="586.54" y2="509.65" gradientUnits="userSpaceOnUse"><stop offset="0" stop-color="#ece4c6"/><stop offset="1" stop-color="#e8d5b3"/></linearGradient><linearGradient id="linear-gradient-9" x1="608.59" y1="410.83" x2="624.28" y2="422.93" xlink:href="#linear-gradient-2"/><linearGradient id="linear-gradient-10" x1="667.96" y1="388.37" x2="677.82" y2="396.89" xlink:href="#linear-gradient-2"/><linearGradient id="linear-gradient-11" x1="631.82" y1="430.65" x2="638.11" y2="438.29" gradientUnits="userSpaceOnUse"><stop offset="0" stop-color="#72acdd"/><stop offset="1" stop-color="#519ed6"/></linearGradient><linearGradient id="linear-gradient-12" x1="685.5" y1="405.78" x2="692.21" y2="410.25" xlink:href="#linear-gradient-11"/><radialGradient id="radial-gradient-2" cx="504.06" cy="487.86" r="15.11" xlink:href="#radial-gradient"/><linearGradient id="linear-gradient-13" x1="650" y1="408.6" x2="670.07" y2="408.6" xlink:href="#linear-gradient-2"/></defs><title>bggtvlogo</title><path class="cls-2" d="M864.2,480.72c0,134.43-106.4,243.4-237.65,243.4s-237.65-109-237.65-243.4S495.3,237.31,626.55,237.31,864.2,346.29,864.2,480.72Z" transform="translate(-380.25 -228.66)"/><path d="M626.55,237.31c131.25,0,237.65,109,237.65,243.41s-106.4,243.4-237.65,243.4-237.65-109-237.65-243.4S495.3,237.31,626.55,237.31m0-8.65c-65.83,0-127.7,26.24-174.23,73.9s-72.07,110.87-72.07,178.16,25.59,130.56,72.07,178.16,108.4,73.9,174.23,73.9,127.71-26.25,174.24-73.9S872.86,548,872.86,480.72s-25.59-130.56-72.07-178.16-108.41-73.9-174.24-73.9Z" transform="translate(-380.25 -228.66)"/><path class="cls-3" d="M851.22,480.72c0,127.08-100.59,230.11-224.67,230.11s-224.66-103-224.66-230.11S502.48,250.61,626.55,250.61,851.22,353.63,851.22,480.72Z" transform="translate(-380.25 -228.66)"/><path class="cls-4" d="M626.55,711.94c-124.49,0-225.78-103.72-225.78-231.22S502.06,249.49,626.55,249.49,852.33,353.22,852.33,480.72,751.05,711.94,626.55,711.94Zm0-460.22c-123.26,0-223.55,102.73-223.55,229s100.29,229,223.55,229S850.1,607,850.1,480.72s-100.28-229-223.55-229Z" transform="translate(-380.25 -228.66)"/><path d="M836.38,480.72c0,118.69-93.94,214.91-209.83,214.91S416.73,599.41,416.73,480.72s93.94-214.91,209.82-214.91S836.38,362,836.38,480.72Z" transform="translate(-380.25 -228.66)"/><path class="cls-5" d="M815.46,488.67c0,103.78-82.14,187.91-183.46,187.91S448.55,592.45,448.55,488.67,530.68,300.77,632,300.77,815.46,384.89,815.46,488.67Z" transform="translate(-380.25 -228.66)"/><path class="cls-5" d="M632,678C530.08,678,447.17,593,447.17,488.67S530.08,299.38,632,299.38,816.84,384.3,816.84,488.67,733.92,678,632,678Zm0-375.81c-100.39,0-182.06,83.67-182.06,186.52S531.61,675.19,632,675.19s182.07-83.67,182.07-186.52S732.39,302.15,632,302.15Z" transform="translate(-380.25 -228.66)"/><path class="cls-5" d="M815.46,488.67c0,103.78-82.14,187.91-183.46,187.91S448.55,592.45,448.55,488.67,530.68,300.77,632,300.77,815.46,384.89,815.46,488.67Z" transform="translate(-380.25 -228.66)"/><path class="cls-5" d="M632,678C530.08,678,447.17,593,447.17,488.67S530.08,299.38,632,299.38,816.84,384.3,816.84,488.67,733.92,678,632,678Zm0-375.81c-100.39,0-182.06,83.67-182.06,186.52S531.61,675.19,632,675.19s182.07-83.67,182.07-186.52S732.39,302.15,632,302.15Z" transform="translate(-380.25 -228.66)"/><path class="cls-6" d="M631.23,666.32c-95.64-.42-173.1-80.46-172.68-178.42S537.11,310.6,632.75,311,805.86,391.5,805.44,489.46s-78.58,177.3-174.21,176.86Z" transform="translate(-380.25 -228.66)"/><path class="cls-7" d="M631.23,666.32c-95.64-.42-173.1-80.46-172.68-178.42S537.11,310.6,632.75,311,805.86,391.5,805.44,489.46s-78.58,177.3-174.21,176.86Z" transform="translate(-380.25 -228.66)"/><path class="cls-8" d="M629.23,576.92c107.7,0,123.68-36.3,170.21-87.49.4-94.57-74.38-171.84-166.71-172.24H632c-91.91,0-167,76.58-167.44,170.74C464.54,487.93,528.08,577.37,629.23,576.92Z" transform="translate(-380.25 -228.66)"/><g class="cls-9"><path class="cls-10" d="M634.11,646h-.74c-89.14-.39-161.72-73.32-164.61-163.84-.05,1.67-.09,3.35-.1,5-.4,93.43,73.5,169.78,164.71,170.19h.74c90.83,0,165-75.69,165.43-168.71,0-2.13,0-4.24-.1-6.35C796.44,573.05,723.29,646,634.11,646Z" transform="translate(-380.25 -228.66)"/></g><path class="cls-11" d="M652.6,423.77c3.11-4.33,12.08-15.67,12.95-15.15,2,1.66,7.11,12.76,7.11,12.76s-4.24-1.54-7-.38-9.09,9.86-9.09,9.86C654.68,427.27,654.18,425.91,652.6,423.77Z" transform="translate(-380.25 -228.66)"/><path class="cls-5" d="M815.46,488.67c0,103.78-82.14,187.91-183.46,187.91S448.55,592.45,448.55,488.67,530.68,300.77,632,300.77,815.46,384.89,815.46,488.67Z" transform="translate(-380.25 -228.66)"/><path class="cls-5" d="M632,678C530.08,678,447.17,593,447.17,488.67S530.08,299.38,632,299.38,816.84,384.3,816.84,488.67,733.92,678,632,678Zm0-375.81c-100.39,0-182.06,83.67-182.06,186.52S531.61,675.19,632,675.19s182.07-83.67,182.07-186.52S732.39,302.15,632,302.15Z" transform="translate(-380.25 -228.66)"/><path class="cls-5" d="M815.46,488.67c0,103.78-82.14,187.91-183.46,187.91S448.55,592.45,448.55,488.67,530.68,300.77,632,300.77,815.46,384.89,815.46,488.67Z" transform="translate(-380.25 -228.66)"/><path class="cls-5" d="M632,678C530.08,678,447.17,593,447.17,488.67S530.08,299.38,632,299.38,816.84,384.3,816.84,488.67,733.92,678,632,678Zm0-375.81c-100.39,0-182.06,83.67-182.06,186.52S531.61,675.19,632,675.19s182.07-83.67,182.07-186.52S732.39,302.15,632,302.15Z" transform="translate(-380.25 -228.66)"/><path class="cls-6" d="M631.23,666.32c-95.64-.42-173.1-80.46-172.68-178.42S537.11,310.6,632.75,311,805.86,391.5,805.44,489.46s-78.58,177.3-174.21,176.86Z" transform="translate(-380.25 -228.66)"/><path class="cls-7" d="M631.9,681.78c-103.95,0-188.49-86.71-188.44-193.19s84.66-193.07,188.62-193,188.5,86.71,188.45,193.19-84.67,193.07-188.63,193Z" transform="translate(-380.25 -228.66)"/><path class="cls-12" d="M629.35,584.61c117.08-.47,134.3-40,184.65-95.85,0-102.79-81.56-186.46-181.92-186.49h-.81c-99.91.4-181.24,84-181.29,186.32C450,488.59,519.41,585.54,629.35,584.61Z" transform="translate(-380.25 -228.66)"/><g class="cls-9"><path class="cls-10" d="M629.71,649.31h-.78c-93.79-.41-170.17-77.15-173.21-172.41-.06,1.77-.1,3.54-.11,5.31-.41,98.32,77.34,178.66,173.32,179.1h.78c95.58,0,173.66-79.65,174.08-177.54,0-2.24,0-4.46-.11-6.68C800.53,572.53,723.55,649.31,629.71,649.31Z" transform="translate(-380.25 -228.66)"/></g><g class="cls-13"><path class="cls-14" d="M690.45,626.07l-9.8-4.68s-7.29-6.46-17-6.46-20.37,1.4-29.36,8.38S608,654.07,603.41,685c0,0,19.38,10.21,50.9,15.45,22.91,3.8,52.36,3.51,84.72,1.93,17.27-.73,70.52-10.2,93.14-29.38s5.69-59.79-39.65-80.46c0,0-31.3-9.92-65.71,3.78L743,608.52l3.4,3.38-13.37,8.19-20.17,6.18-23.66-1.46,1.25,1" transform="translate(-380.25 -228.66)"/><path class="cls-15" d="M706.48,601.87l-2.2,1.44s6.84,4.61,9.1,7.38l26.86-1.48-19.38-8.41Z" transform="translate(-380.25 -228.66)"/><path class="cls-16" d="M582.52,453.43l19.45-25s-10.6-36.56-9.32-42.33c0,0-19.94,26.85-10.61,67.36" transform="translate(-380.25 -228.66)"/><path class="cls-17" d="M730.34,522.12a190.62,190.62,0,0,1-6.54-50.71v-1.86c.05-11.27.15-30.14-18.53-39.77l-.24-.13-.14.25a12.41,12.41,0,0,1-6.52,5.1l-.27.09.08.28a29.91,29.91,0,0,1,1,7.86,20.93,20.93,0,0,1-3.9,12.82,4.94,4.94,0,0,1-3.15-1.95A21.83,21.83,0,0,0,697.61,440a20.93,20.93,0,0,0-1.1-6.66l-.13-.35c-2.72-7.32-3.65-9.78-6-9.92s-11.67,5.2-14.93,9.79a10.83,10.83,0,0,1-.09-1.45,8.91,8.91,0,0,1,.56-3.23,19.71,19.71,0,0,1,6-3.74l.77-.24-.76-.3s-4.49-1.89-12.07-12.4l-.08-.13h-.15a38.09,38.09,0,0,0-5.35.44c-2,.92-4.39,3.45-5.91,6.15-.12.22-3.05,5.33-3.05,7,.1.26,6.75,14.14,2.89,27a15.27,15.27,0,0,1-10.67,10.38,23.56,23.56,0,0,1-21.66-4.87,59.83,59.83,0,0,1-15.25-20.85l-.18-.44-16,18.63c-.11.24-5.88,15.32-7.75,29.07-1.64-.65-12.93-5-21.66-5.66-6.16-.44-9.84-.7-11.75,1.11-1.06,1-1.54,2.63-1.54,5.23v1.12c0,6.7,0,13.05,6.22,22.28s15.56,19.91,22.59,21.76c4.74,1.22,12.75.93,19.2.69l7-.15c2.57,0,5.67-4.1,5.67-9.17,0,0,.1-4.7.12-5.52a3.06,3.06,0,0,1,1.28,1.71l.07,1.1v.3c0,1.5.19,4,3.11,9.41,4.17,7.71,19.33,30.3,30.39,37.84,10.71,7.33,27.92,7.32,39.29,7.31h1.13c11.75,0,31.4,0,38.68-3.92,6.68-3.61,11.06-7.58,10.78-15.06C736.91,547.46,736.33,544.77,730.34,522.12Z" transform="translate(-380.25 -228.66)"/><path class="cls-18" d="M592.32,385.67s-4,6.62.11,20.09,9.92,29.3,15.23,42.42,5.19,12.63,7.51,32.37S637,517,665.34,539.15c13.95,10.88,33.91,30.83,48,33.55,0,0,13.83.12,19.36-6s6.71-11.1,5.89-14.27-9.68-43.13-11.31-52.95-.68-38.27-2.19-43.83-11.18-23-14.41-24.44-5.65-2.25-5.65-2.25-1.84,1.88-3.81,3.66a4.27,4.27,0,0,1-3.92,1.18l-2.88-6.26s-1.51-5-3-5.08S683,424.3,683,424.3s-3.34-2.59-5.07-4.25-8.08-10.51-8.08-10.51-12.34-.36-16.26,14.42c0,0,6,11.69,4.38,22s-7.15,16.89-17.3,16.77-19.26-8.5-27.22-20.9-6.93-21.75-8-28.71.93-15.6,7.61-19.38,21.11.23,33.45,15l1.62,2.25s10.27-14.42,12.92-15.72S664,395,664,395s-.35-3.89-.35-7.08,2.08-9.92,5-11.94,8.31-1.05,8.31-1.05-5.65-17.26-5.77-16.91-2.54-7.08-5.42-8.15l-6.22-4.49S600.4,354.6,592.32,385.67Z" transform="translate(-380.25 -228.66)"/><path class="cls-19" d="M647.12,364.35s9.53-8.9,20.33-30.8,11.87-39.49-1.7-46-17.58-6.95-27.11-8-39.4-7.6-45.54-9.12S566,266.94,563,268.45s-32.62,23.21-32.62,23.21-36.23,33.64-54.65,43.84S449.05,349.16,445.66,350c0,0,28.17,11.07,55.71,8.25l-1.48,2.82s-36.65,36-108.26,55.32c0,0,24.16,11.28,52.54,6.52h2.34S424.26,436.82,401,442.89c0,0,29.45,7.59,39.82,11.5s19.71,8.69,32.63,19.31l12.92,7.16s-21.81-3-31.35,5.86c0,0,26.48,0,43.64,8.68s33.89,17.78,45.54,15l.84-1.52s2.54-7.81,5.51-10c0,0-.42-2.17-1-6.73s-.21-13.67,2.75-14.54,12.07-1.08,12.07-1.08,5.73-3.91,11.66-21.47,9.32-29.52,9.32-37.54-2.55-12.8,8.26-29.73a80.46,80.46,0,0,1,13.77-16c4.71-4.53,8.28-7.56,11.86-8,6.57-.87,12.93.65,19.28.86A46.07,46.07,0,0,0,647.12,364.35Z" transform="translate(-380.25 -228.66)"/><path class="cls-20" d="M605.85,423.05c-21,24.46-38.55,52-38.73,52.31l-.29.45,6.55,2,.17-.23c12.56-18.43,35.54-43.77,35.77-44l.17-.19-.09-.24c-1-2.51-2.86-9.81-2.88-9.89l-.17-.74Z" transform="translate(-380.25 -228.66)"/><path class="cls-20" d="M550.5,501.36a16.62,16.62,0,0,0-4.49,8.28h0c-1.27,5.36.07,24.79,1.54,31.92,1.72,8.23,2.79,11.12,4.26,11.4,1.05.23,2.84-1.14,3.55-1.77.28-.23,2.7-2.29,2.7-3.5l-.73-5.85c-.9-6.65-2.27-16.73-2.37-21.29l-.11-3.94c-.15-3.4-.18-4.43.66-6.88l0-.18L550.87,501Z" transform="translate(-380.25 -228.66)"/><path class="cls-21" d="M587.88,461.74c-4.25,4.88-11.86,15.41-11.56,16.64l.07.3.31.14a33.43,33.43,0,0,1,6,3l.8.51.09-.94c.51-6,5.16-18.95,5.21-19.07Z" transform="translate(-380.25 -228.66)"/><path class="cls-21" d="M637.9,364.47s8.89-15.56,12.82-26.13,5.95-29.65,2.73-34.86-7.38-8.73-20.07-13.06S590,277.21,587.24,277.28a73.39,73.39,0,0,1-11.18-3.59c-2.94-1.25-9-3.82-14-3.74,0,0,3.3-5,23-1s44.5,9.18,53,10,25.22,5.5,31.1,10.34,9.53,25.17,4.37,34.13-14.19,24.21-14.19,24.21-7.3,12.55-11.75,16.67A49.89,49.89,0,0,1,637.9,364.47Z" transform="translate(-380.25 -228.66)"/><path class="cls-21" d="M625.94,363.44s-2.06-16.72-3.8-23.17S606.81,315,596.87,313.89c0,0-5,.59-13.67,4.32s-20.44,11.18-18.73,14.34c.83,1.53,4.06-1.44,12.51-1.27s27,6.37,43.09,32.42A27.22,27.22,0,0,1,625.94,363.44Z" transform="translate(-380.25 -228.66)"/><path class="cls-21" d="M619.65,363.53s-22-17.57-36.87-13.83S562,370,558.18,376.6s-23.13,24.53-26.69,27.49c-.81,2.45.59,2.12,1.42,6.87s1.25,14.85,1.25,14.85a185.92,185.92,0,0,0,29.74-23.34c13.49-13.4,27.09-27.57,31.31-30.63s-18,20.78-23.78,28.08-21.87,26.14-34.87,32.17c-3.16,1.36-2.9,1.18-3,4.08s-2.82,21-3.31,23.32c0,0,20.71-6.11,32.47-14.67,0,0-7.79,12.13-19.71,20a96.19,96.19,0,0,1-12,6s0,13.49,4.4,17.83c0,0,7.37.08,13-2.22l.25.68a23.74,23.74,0,0,1-10.27,5.78s2.89,5.51,11.6,5.26a56.16,56.16,0,0,1-1.08-12.82c.33-6.28.41-7.71,4.39-8.66a63.91,63.91,0,0,1,10.52-1s4-3.73,9.36-17,9.21-23.92,10.78-35.79-.17-14.26,2.48-21.47,8.7-18.51,21.87-30.89c4.06-3.82,8.7-7,11.26-7.22" transform="translate(-380.25 -228.66)"/><path class="cls-22" d="M562.51,494.88c0,.42,4.8,17.74,13.12,23s17.42,4,22.49,2.94c2.3-.49,6.16,1.16,5.15-4-1-5.49-4.77-11.85-7.26-11.66s-7.27-1.57-10.14-6.18-3.92-6.95-8.9-6.86S562.14,490.38,562.51,494.88Z" transform="translate(-380.25 -228.66)"/><path class="cls-23" d="M636.92,402.47l-.13-.15c-.07-.09-6.62-7.9-16.72-9-4.26-.45-7.81.82-10.28,3.68-2.79,3.25-5.47,10-2.35,23.82,3.34,14.78,8.47,25.25,15.69,32l.49.46v-.68c0-.27-.36-26.78,13.2-50Z" transform="translate(-380.25 -228.66)"/><path class="cls-24" d="M685.57,382.05l-.12-.15c-4.9-6.12-12.91-7.78-17.86-3.67s-2.74,16.73-2.71,16.84a84.78,84.78,0,0,1,6.57,12.24c.56,1.4.4,1.92.27,2.11a.58.58,0,0,1-.49.18l-.62-.08.34.52c2.61,4.15,8.76,10.34,8.82,10.4l.68.68-.19-.95c-4.13-20.73,5.11-37.77,5.21-37.94Z" transform="translate(-380.25 -228.66)"/><path class="cls-25" d="M655.08,435.76c-2.07-11.62-8.2-19.72-11.57-22.09a2.68,2.68,0,0,0-1.88-.71c-2.29.44-16.33,17-16.33,38.71,0,1,0,2.07.1,3.11.15.27,8.15,8.73,17.37,7.39a13.32,13.32,0,0,0,9.09-5.8C655.34,451.4,656.52,443.88,655.08,435.76Z" transform="translate(-380.25 -228.66)"/><path class="cls-26" d="M694.24,392.92c-1.54-2.15-2.8-3.1-4-3-1.51.13-2.65,2-4,4.91v0c-5.1,9.36-4.76,26.44-4.76,26.61,1.65,2,2.17,2.15,2.46,2,.11-.06,5.06-2.63,7.54-1.24s6.12,11,6.15,11.12l.08.21H698c.1,0,2.66-.19,4.68-3.5C708.89,420.11,697.67,397.75,694.24,392.92Z" transform="translate(-380.25 -228.66)"/><path class="cls-27" d="M689.75,422.67s-12.74,4.55-14.23,6.06h0s-4.59,10.33,4.16,20c0,0,3.68-18.19,11.71-25.79Z" transform="translate(-380.25 -228.66)"/><path class="cls-27" d="M643.81,496s27,17.31,54.1,14.43c13.48-1.21,21.18-20.49,17.49-41.74l-.75-3s1,17.3-9.18,29.91-27.73,14-41.64,7.74S643.81,496,643.81,496Z" transform="translate(-380.25 -228.66)"/><path class="cls-28" d="M610,533.14s19.78,25.67,32.43,48.68c14.2,25.87,13.6,32,13.6,32s14.8-4,32,11.46c0,0,23.15,2.46,27-.6s-4-18.65-14.35-21.12c-6.42-1.53-8.67,1.7-8.67,1.7l-.14.14s-13.3-17.14-20.18-31.22c0,0-23,4.14-42.44-26.17l-14.64-21.28Z" transform="translate(-380.25 -228.66)"/><path class="cls-29" d="M652.89,573.1s15.24,30,27.2,45.31l8.37,7s17.63,1.53,22.7.92,9.29-6,3.45-13.62c0,0-9.72-1.54-12.85,2.45,0,0-10.91-9.8-32.42-39.5l-17.65-4.58Z" transform="translate(-380.25 -228.66)"/><path class="cls-14" d="M690.28,626.31l-.83-.64,1,.1c.12,0,12.46,1.23,20.35.78,2.91-.16,5-1.33,6-3.35,1.4-2.68.86-6.81-1.43-10.75a10.05,10.05,0,0,0-2.17-2s14.36-2.79,25.25-1.49c4.66,2.26,8.07,4.12,8.2,4.2a28.6,28.6,0,0,0,4,5.38c3.21,3.59,6.38,7.56,7.24,8.69l1.19,1.53h-.6s-3.37,0-5,.81a.08.08,0,0,0,0,0c0,.9,3,3.5,5.89,6l3.1,2.73,3.93,3.66c5.23,4.91,12.38,11.64,20,16.85a125.64,125.64,0,0,0,23.23,12.48,5.2,5.2,0,0,1,.62.34" transform="translate(-380.25 -228.66)"/><path class="cls-30" d="M814.87,665.54c-6.15-13.09-26.16-39.33-26.37-39.61l-.18-.24-.24,0-8,.34,1,.94,6.53,6.2a1.59,1.59,0,0,1,.54.95.06.06,0,0,1,0,0c-.46.57-2.49.92-3.74,1l-1-.65-8.4-8h-.18c-2.29-.29-3.18.26-3.35.37l-.54.42.48.48c.08.09,7.36,7.37,10.65,11.88-1.58.89-3.35,1.19-4.27.56-2.56-2.5-12.68-11.13-13.1-11.49l-.16-.13h-.22a43,43,0,0,0-5.51.38,11.78,11.78,0,0,0-2.3.5,1.21,1.21,0,0,0-.91,1c-.12.76.62,1.51,1.07,1.87.06,0,2.66,2.76,10.9,10s24,18.19,33.08,23.44c7.54,4.41,13.19,6,14.67,5.28a.91.91,0,0,0,.5-.67A8.09,8.09,0,0,0,814.87,665.54Z" transform="translate(-380.25 -228.66)"/><path class="cls-31" d="M787.49,632.94c-.15-.16-15-14.84-21.93-20.18l-.14-.09-.15,0c-1-.08-2.06,1.28-2.35,1.71l-.22.28,3.75,7.44.56-.63s1-1.16,1.58-.66l15,13.88.26,0a16.32,16.32,0,0,0,3.52-.77l.73-.37Z" transform="translate(-380.25 -228.66)"/><path class="cls-31" d="M780.79,638.13c-5.47-6.64-19-19.1-25.2-23.57-3.34-2.42-5.69-3.44-7-3a1.3,1.3,0,0,0-.83.77l0,.09v.09c-.06,1.8,1.8,3.87,4.15,6.48l4.21,5c3.1,4.22,6.19,3.94,8,3.81a2.16,2.16,0,0,1,1.31,0l6.65,6.73c3.53,3.73,4.93,5.15,5.72,5.28,1.11.2,2.69-.14,3.07-.83A.81.81,0,0,0,780.79,638.13Z" transform="translate(-380.25 -228.66)"/><path class="cls-32" d="M764.34,635.27s37.11,33.78,50.8,35.65c0,0,3.12,4.81-14.89-4.57s-40.08-29.22-45.41-35.61c-.86-1,.77-1.58.77-1.58l3-.23Z" transform="translate(-380.25 -228.66)"/><path class="cls-33" d="M748.44,611.45S760,621.84,763.3,627.79l-4.24-.19-8.78-10.38-2.94-4.94Z" transform="translate(-380.25 -228.66)"/><path class="cls-15" d="M745.13,604.91s36.81-9.94,63.77-2.66c0,0-11.88-12.33-40.15-13.37S726,597.21,726,597.21Z" transform="translate(-380.25 -228.66)"/><path class="cls-15" d="M663.39,621.39s-32.11,32.4-34.54,63L603.41,686s10.47-50.6,29.92-61.56S663.39,621.39,663.39,621.39Z" transform="translate(-380.25 -228.66)"/><path class="cls-34" d="M472.24,383.59c17.4-11.3,19.43-15.6,26.42-20.21s10.72-7.49,21.29-18.94,37.62-28.5,62.63-30.9,38.24,20.07,42,41.24c0,0,2.49-14.16-10.26-30.89s-36.21-14.64-57-6.2S526,336,506,354.15c0,0-27.51,6.52-58.91-4.15,0,0,27.35-9.06,54.4-31.68s47.24-43.77,59.21-47.27,26.89,0,50.05,4.61,32.17,4.94,36.2,5.73,19.44,5.74,23.47,13.54S678,308.13,651,360.67c0,0,6.84-7.16,9.17-13.06a11.51,11.51,0,0,1,4,4.63,4.17,4.17,0,0,1,3.11-1.12,22.93,22.93,0,0,0-4.35-4.93s13.67-16.24,16.63-30.25,2-26.74-24.25-33.91a41.71,41.71,0,0,0-12-3.51c-4.67-.63-20.21-2.38-32.33-5.09s-33.11-9.07-45.23-6.84-22.69,12.57-29.22,18.14S490.74,332.5,444.73,350c0,0,24.09,13.38,53.46,10.35,0,0-30,34.87-107.54,55.56,0,0,3.39,1.11,14.77-2.2C419.89,409.52,445.35,399.37,472.24,383.59Z" transform="translate(-380.25 -228.66)"/><path class="cls-34" d="M642,355.74c-.3,1.27.16,1.59.16,1.59s12.28-19.1,14.15-37.89-2.8-21.81-18-28-54.7-18.31-64.33-15a17.75,17.75,0,0,0,5.27.64c3.42,0,38.7,7.17,59.84,16.71,9,4.3,15.85,7.81,14.3,25.79S643.36,353.51,642,355.74Z" transform="translate(-380.25 -228.66)"/><path class="cls-34" d="M602.63,385.35c-5,7-4,10.34-4,10.34,5.12-7.79,10.57-15.91,16.31-18s20.21.8,20.21.8-4-3.19-14.93-4.77S607.61,378.34,602.63,385.35Z" transform="translate(-380.25 -228.66)"/><path class="cls-34" d="M793.38,592.27c-33.63-11.2-66.26,2.9-66.26,2.9a46.72,46.72,0,0,0-4.82-1.44l-7.3,6.36-11.19.65c-8.39.48-10.56,3.34-10.56,3.34s5.9.16,7.91,1.11c10.89,5.89,16.18,16.4,12.75,19.6s-25.17-.82-25.8-.95c-12.59-13.4-30.77-11.49-30.77-11.49C646.61,575.73,611,533.71,611,533.71c4.5-1.27,4.5-4.62,4.5-4.62s1.87,2.55,13.06,19.43,20.67,21.17,20.67,21.17c16.32,13.85,23.47,12.75,23.47,12.75l5.91,7.62c11.49,14.8,20,22.47,20,22.47s-3.42-4.64-7-8.61c-10-11.31-17.87-27.54-17.87-27.54s13.52-1.1,32.63-1.43,23.78-2.71,30.46-8.92,2-24.83-1.4-36.94-4.81-23.56-7-40.11.47-26.58-5-43.13c-4.47-13.61-14.61-18.64-14.61-18.64,1.55-12.88-3.56-23.88-12.58-37.73s-17.58-15.13-17.58-15.13l-6.52-14.47s1.87-1,6.06.31,6.07,3.35,7.31,2.39c-2.49-2.55-10.41-5.42-15.24-6.37s-7.31,3-10.71,7.8-2,8.6-2,8.6c4-10.18,10.57-13.05,10.57-13.05l5.6,14.64a9.18,9.18,0,0,0-9.64,5.89c-2.5,5.73-1.1,14-1.1,14s-.45-1.13-2.47.79S650.5,407.16,648.49,410c-12.75-18.78-30.43-23.13-39-14.49-8.89,9-3.81,26.38-3.81,26.38l-20.74,24.88c2.8-12-.32-39-.32-39s-2.32,9.23-13.83,26.1-35.28,24.21-54.86,27.23-50.51-3-50.51-3,8.4,5.09,39.94,6.52,50.52-13.37,50.52-13.37-5.9,10.67-21.92,17.35-48.64-2.54-62.47-4.3-11.66-2.54-25.65-8.91a93.43,93.43,0,0,0-26-7.64,13.24,13.24,0,0,0,5.13,2.07c12.12,2.4,30.46,11.14,34.19,14.48s17.72,15.45,29.22,19.28c33.42,13.68,59.69,3.8,59.69,3.8-11.66,10.05-39.79,5.1-51.61,1.6s-19.58-4.93-19.58-4.93,21.29,7.48,30.78,9.7c28.12,5.58,40.41-4.77,40.41-4.77-.47,4,1.7,9.24,1.7,9.24-4,4-5.59,11.46-5.59,11.46-16.79.15-24.55-5.1-31.24-9.08s-21.6-10-39.16-13.53-20.06,0-20.06,0c11.5-.8,36.53,4.14,55.95,15.45s34.2,9.06,34.2,9.06c-1.55,9.72.78,34.24,3.57,40.76s7.62,2.71,10.11.8,4.5-3.18,3.42-6c-3-8.6-3.58-35-3.58-35C563,521.46,576.06,530.85,580,532s11.66.81,16.32.48,12.9,1.11,12.9,1.11c36.05,43.62,45.22,79.59,45.22,79.59s-47,9.58-52.59,73.73c0,0,109.87,46,217-3.12C883.58,650.72,816.61,600,793.38,592.27ZM694,393.1c3.53,5,14.55,27,8.39,36.8-2,3.23-4.46,3.36-4.46,3.36s-3.66-9.81-6.29-11.27-7.75,1.2-7.75,1.2-.25.4-2.09-1.75c0,0-.39-17.05,4.72-26.46C688.76,390.14,690.47,388.13,694,393.1Zm-26.23-14.65c4.85-4,12.72-2.28,17.45,3.63A61,61,0,0,0,680,420.23s-6.17-6.18-8.79-10.34c0,0,1.7.26.53-2.69A83.74,83.74,0,0,0,665.15,395S662.93,382.48,667.78,378.45Zm-26.1,34.79c2.1-.39,10.63,8.61,13.11,22.57s-2.88,24.72-12.06,26.07-17.05-7.12-17.05-7.12C624.24,431.52,639.58,413.66,641.68,413.24ZM620,393.64c10.1,1.07,16.53,8.86,16.53,8.86-13.78,23.51-13.24,50.11-13.24,50.11-6-5.64-11.81-15.05-15.62-31.84C603.33,401.38,610,392.56,620,393.64Zm-13.9,29.68s1.84,7.39,2.89,9.94c0,0-23.08,25.39-35.8,44.06,0,0-3.28-1.07-5.78-1.75A512.11,512.11,0,0,1,606.14,423.32ZM588.3,462.14s-4.71,13-5.24,19.21a35.41,35.41,0,0,0-6.16-3.1C576.4,478.08,582.8,468.46,588.3,462.14Zm-40.13,23.52C502.93,498.27,464,465.24,464,465.24c4.6-1.08,31.61,6.83,48.13,7.78s23.22.28,42.36-16.53,29.38-40.43,29.38-40.43c-3.67,38.29-21.25,59.51-21.25,59.51S552.37,475,550,477.19,548.17,485.66,548.17,485.66Zm9.49,62c0,1.28-4.37,5.17-5.77,4.89s-2.54-4.33-3.94-11.11-2.82-26.4-1.56-31.73a16.51,16.51,0,0,1,4.37-8.08c2.4,4.18,4.37,7.94,4.37,7.94-1.13,3.31-.71,4.18-.56,11S557.66,546.38,557.66,547.69Zm49-17.7c-6-.15-19.41,1.2-26.1-.55s-15.87-12-22.42-21.62S552,491.57,552,484.58s3.55-6.71,13-6,21.91,5.77,21.91,5.77c1.83-14,7.74-29.29,7.74-29.29,4.45-5.24,15.73-18.26,15.73-18.26a59.82,59.82,0,0,0,15.34,20.94c10.76,9.28,28.85,7.54,32.79-5.64s-2.89-27.12-2.89-27.12c0-1.62,3-6.86,3-6.86,1.4-2.48,3.77-5.09,5.77-6a46.27,46.27,0,0,1,5.25-.41c7.73,10.74,12.19,12.5,12.19,12.5a18.63,18.63,0,0,0-6.16,3.88,10.43,10.43,0,0,0-.4,5.52c2.76-4.58,12.86-10.35,15.09-10.22s3.15,2.69,5.9,10.08c4.06,12.22-4.47,20.69-4.47,20.69a5.26,5.26,0,0,0,3.69,2.27c6.81-8.72,3-21.07,3-21.07a12.59,12.59,0,0,0,6.68-5.25c19.55,10.07,18.36,30,18.36,41.37a191,191,0,0,0,6.57,50.78c5.89,22.3,6.55,25.25,6.81,32.11s-3.41,10.88-10.62,14.76S699,573,687.72,573s-29.25.24-40.27-7.28S621.22,535.49,617.16,528s-2.76-9.26-3.15-10.74a3.67,3.67,0,0,0-1.84-2.15s-.12,1.21-.12,6S609.17,530,606.67,530Zm-1.08,155.73s10.13-61.08,38.09-64.83c0,0,24.82-1.73,44.27,28.17s24.81,51.06,24.81,51.06S677.82,714.11,605.59,685.72Zm204-16.2a56.68,56.68,0,0,1-8.64-4.18c-8.87-5.2-24.69-16.08-33-23.42s-10.89-10-10.89-10-1.72-1.32-.35-1.82a31.87,31.87,0,0,1,7.63-.84s10.5,8.94,13.16,11.51c1.24.84,3.55.48,5.46-.84-3.13-4.51-11.11-12.48-11.11-12.48s.75-.55,2.93-.28c0,0,6.68,6.29,8.24,7.82a5.18,5.18,0,0,0,1.3.83s3.47-.13,4.44-1.46c0,0,.2-.63-.68-1.53s-6.56-6.23-6.56-6.23,5.19-.34,6.56-.27c0,0,9.08,11.9,16.93,23.72,0,0,12.15,16.82,10,20.53C814.37,671.43,809.58,669.52,809.58,669.52Zm7.35,2.24c3-6.66-13.2-27.08-13.2-27.08s-12.17-16.74-15.28-19.44c0,0-3,0-7.74.37,0,0-9.56-9.57-15.62-13.47,0,0-1-.09-2.81,2.12,0,0-14.84-11.92-33-18.46,0,0,49.44-15.1,70.64,2.2,0,0,57.55,32.12,32.74,72.72-38.67,30.66-89,28.65-89,28.65-19.22-44.33-53.2-73.3-53.2-73.3s12.39,1.24,20.4.78,8.61-8.05,4.84-14.57a19.15,19.15,0,0,0-10.13-8.34c1.36-1.7,15.26-2,15.26-2,10.27,3.08,25.65,11.36,25.65,11.36a28.86,28.86,0,0,0,4.1,5.46c3.06,3.43,6.19,7.32,7.22,8.65.58.77.75,1,.81,1.05s-3.41-.08-5,.7,3.75,4.89,8.79,9.42,14.11,13.82,24,20.51a124.75,124.75,0,0,0,23.25,12.52l.55.28S815.54,674.81,816.93,671.76Zm-36.59-33.24c.42.48-1.22,1-2.45.83s-7.29-7.56-12.13-11.94c-1.25-.89-5.09,1.88-9.19-3.71-3.77-5.08-8.32-8.64-8.26-11.15,0,0,.61-2.11,7,2.51S775.17,632.24,780.34,638.52Zm-17-23.83s1.09-1.53,1.84-1.47c7,5.4,21.89,20.12,21.89,20.12a18.87,18.87,0,0,1-3.34.71S770,621.25,769,620.35s-2.39.71-2.39.71Z" transform="translate(-380.25 -228.66)"/><path class="cls-34" d="M580.88,383.91C560.05,406.06,539.22,424,526,427.53s-18,3.67-28.75,3-18.8.33-35.43,5.42-55,8.44-62.48,6.38c0,0,17.86,6,46.31.31s38.08-10.51,49.58-8.6,28.29,2.55,47.87-12.11,46.31-43.92,56.57-51.56,18.18-7.49,20.67-6.38c0,0-18.65-17.51-36.53-18.3-6.52.15-10.55,2.07-12.74,3.82,0,0-13.67,2.07-33.72,32.79-7.77,4.45-13.06,3-22.84,2.55s-23.63,1.74-35.44,21.33c-4.82,6.37-21.45,14.79-49.42,16.4A80,80,0,0,1,409,421.33c-8.28-1.55-10.3-3.7-14-2.87,0,0,26.73,12.74,55.64,4.78s25.8-14,30.77-17.83,3.42-4.78,29.37-5.57c14.46-1,19.43-7.81,25.8-14.81s13.21-21.18,27.67-30.41,32-8.12,51.6,7.65C615.85,362.27,605.12,358.13,580.88,383.91Zm-66.83,13.86c-13.84.47-24.72-1.28-30.93,4.45,0,0,11.82-13.37,23.31-14.49s23.32.8,28-2.07C534.41,385.66,527.88,397.29,514.05,397.77Z" transform="translate(-380.25 -228.66)"/><path class="cls-34" d="M587.52,521.13c-3.52-1-6.34-2.45-9.16-3.31s-4.21-.44-7-6.64-6.05-13.12-5.49-14.57,6.9-1.43,7.74-.43-.84,3.17,3.81,9.95,8.3,8.23,10.84,8.38c1.13-.15,0,0-3-2.9s-4.37-6.91-5.64-10.52-2.81-6.93-.57-6.93,4,.43,4.65,2.32,4.23,8.51,10.7,9.22a3.66,3.66,0,0,0,2.11-.43s-6.19-.57-8.3-4.91c-3.86-7.92-2.71-6.21-7.89-8.93-4.92-2.6-12.52-1.88-16.61-1s-4.51,1.6-.84,9.67,8.87,15.43,10.41,17,3.1,4.33,7.75,5.92,12.11.57,16.47-1.73C595.68,520,591,522.14,587.52,521.13Z" transform="translate(-380.25 -228.66)"/><path class="cls-34" d="M593.29,484.84a136.88,136.88,0,0,1,4.33-19.6,22.16,22.16,0,0,0,1.44-6.72s-6.16,8.19-9.7,31.3c0,0,1.17,3.76,2.23,4.83S592.77,489.28,593.29,484.84Z" transform="translate(-380.25 -228.66)"/><path class="cls-34" d="M637.08,503c1.13-1.87,4.36-9.08,4.36-9.08,22.12,13.12,51.83,21.19,65.21,2.87s7.46-40.81,7.46-40.81c3.52-.72,4.64,2.89,4.64,2.89s.15-5.49-2.24-9.08-9.44-2.46-9.44-2.46c-.56.3.71,1,.71,1,2,.42,2.1,1.45,3.23,2.88,6.49,22.37-2.11,49.18-22.66,53.23S642,489.55,642,489.55a14.79,14.79,0,0,1,1.12-5.49c1.13-2.3,3.79-4.46,3.66-6.77-6.2,3.6-14.36,16-14.5,18.31C632.71,500.65,635.81,503.54,637.08,503Z" transform="translate(-380.25 -228.66)"/><path class="cls-34" d="M595.91,496.13c.4,2.28,2,2,2,2s-.25-7.93,1.19-13.17,1.05-7,1.05-7S596.57,489.15,595.91,496.13Z" transform="translate(-380.25 -228.66)"/></g><path class="cls-35" d="M650,412.64c3.11-4.33,12.08-15.67,13-15.15,2,1.66,7.11,12.76,7.11,12.76s-4.25-1.54-7-.38-9.08,9.86-9.08,9.86C652.08,416.14,651.58,414.78,650,412.64Z" transform="translate(-380.25 -228.66)"/></svg>