<?xml version="1.0" encoding="UTF-8" standalone="no"?>
<svg
   xmlns:dc="http://purl.org/dc/elements/1.1/"
   xmlns:cc="http://creativecommons.org/ns#"
   xmlns:rdf="http://www.w3.org/1999/02/22-rdf-syntax-ns#"
   xmlns:svg="http://www.w3.org/2000/svg"
   xmlns="http://www.w3.org/2000/svg"
   xmlns:sodipodi="http://sodipodi.sourceforge.net/DTD/sodipodi-0.dtd"
   xmlns:inkscape="http://www.inkscape.org/namespaces/inkscape"
   version="1.0"
   width="62.000000pt"
   height="62.000000pt"
   viewBox="0 0 62.000000 62.000000"
   preserveAspectRatio="xMidYMid meet"
   id="svg12"
   sodipodi:docname="bgg copy 6.svg"
   inkscape:version="0.92.2 5c3e80d, 2017-08-06">
  <metadata
     id="metadata18">
    <rdf:RDF>
      <cc:Work
         rdf:about="">
        <dc:format>image/svg+xml</dc:format>
        <dc:type
           rdf:resource="http://purl.org/dc/dcmitype/StillImage" />
        <dc:title></dc:title>
      </cc:Work>
    </rdf:RDF>
  </metadata>
  <defs
     id="defs16" />
  <sodipodi:namedview
     pagecolor="#ffffff"
     bordercolor="#666666"
     borderopacity="1"
     objecttolerance="10"
     gridtolerance="10"
     guidetolerance="10"
     inkscape:pageopacity="0"
     inkscape:pageshadow="2"
     inkscape:window-width="1435"
     inkscape:window-height="830"
     id="namedview14"
     showgrid="false"
     inkscape:zoom="8.0747032"
     inkscape:cx="41.333333"
     inkscape:cy="41.333333"
     inkscape:window-x="0"
     inkscape:window-y="300"
     inkscape:window-maximized="0"
     inkscape:current-layer="svg12" />
  <g
     transform="translate(0.000000,62.000000) scale(0.100000,-0.100000)"
     fill="#000000"
     stroke="none"
     id="g10"
     style="fill:#000000;fill-opacity:0;opacity:0">
    <path
       d="M0 310 l0 -310 310 0 310 0 0 310 0 310 -310 0 -310 0 0 -310z m350 276 c0 -4 11 -6 25 -4 15 3 22 1 18 -5 -4 -6 2 -8 15 -5 14 4 20 2 15 -5 -4 -7 0 -8 11 -4 10 4 15 3 11 -3 -6 -9 8 -14 28 -11 5 1 7 -2 5 -6 -5 -11 60 -72 67 -64 4 3 6 2 5 -4 -5 -21 0 -36 10 -30 5 3 7 0 4 -8 -3 -8 2 -21 10 -30 8 -8 12 -17 9 -20 -3 -4 -2 -14 3 -24 12 -27 13 -86 2 -100 -6 -7 -8 -18 -6 -25 3 -7 -2 -19 -9 -27 -8 -7 -12 -20 -9 -28 3 -8 1 -11 -4 -8 -10 6 -15 -9 -10 -30 1 -5 -1 -7 -5 -4 -7 8 -72 -53 -67 -64 2 -4 0 -7 -5 -6 -20 3 -34 -2 -28 -11 4 -6 -1 -7 -11 -3 -11 4 -15 3 -11 -4 5 -7 -1 -9 -15 -5 -13 3 -19 1 -15 -5 4 -6 -3 -8 -18 -5 -14 2 -25 0 -25 -4 0 -5 -20 -9 -45 -10 -27 -1 -42 3 -38 9 4 6 -4 7 -21 3 -20 -5 -26 -4 -20 5 5 9 2 10 -11 6 -23 -10 -97 34 -129 76 -44 58 -66 118 -66 184 0 58 11 86 25 63 3 -5 2 -10 -2 -10 -5 0 -9 -22 -9 -50 0 -32 3 -45 9 -37 5 7 7 0 3 -21 -3 -18 -2 -31 3 -28 4 3 16 -12 26 -33 38 -85 134 -143 235 -143 149 0 260 112 260 262 0 151 -111 262 -264 262 -33 0 -55 3 -48 5 6 3 10 8 7 12 -2 4 16 7 40 7 25 -1 45 -5 45 -10z m-140 -16 c0 -5 -17 -20 -38 -34 -20 -13 -43 -31 -51 -40 -25 -30 6 -16 55 24 41 34 54 39 79 34 61 -13 80 -27 78 -61 -3 -34 22 -93 30 -71 2 7 7 10 11 7 3 -3 -4 -14 -16 -25 -12 -10 -18 -14 -15 -8 4 7 -3 14 -19 18 -31 8 -44 1 -44 -25 0 -10 -4 -19 -10 -19 -5 0 -10 7 -10 15 0 8 -6 12 -15 9 -8 -3 -13 -11 -12 -17 4 -18 -46 -37 -97 -37 -70 0 -46 19 26 21 32 1 55 6 53 10 -6 9 41 43 80 57 17 6 24 11 17 11 -8 1 -10 9 -6 25 7 28 -18 56 -50 56 -13 0 -40 -11 -60 -25 -38 -26 -80 -33 -91 -15 -8 13 -26 2 -23 -13 4 -21 -12 -55 -29 -61 -26 -10 -24 -3 10 55 39 65 147 145 147 109z m226 -76 c47 -32 59 -47 84 -99 34 -71 23 -120 -29 -130 -12 -2 -25 -6 -30 -10 -6 -3 -13 16 -17 42 -7 50 -42 130 -69 156 -12 13 -13 20 -3 41 14 32 16 32 64 0z m-176 5 c0 -5 4 -8 9 -5 5 3 12 -1 15 -9 4 -12 0 -14 -18 -9 -16 4 -29 -2 -47 -20 -13 -14 -34 -26 -45 -26 -12 0 -32 -8 -45 -19 -21 -16 -79 -34 -79 -25 0 2 17 12 39 23 21 11 52 32 69 46 31 26 81 55 95 55 4 0 7 -5 7 -11z m-17 -71 c-14 -15 -29 -25 -33 -23 -5 3 -10 -1 -13 -9 -3 -7 -25 -16 -49 -19 -24 -3 -53 -9 -63 -12 -11 -4 -2 3 19 14 22 12 45 21 53 21 7 0 27 13 45 29 18 16 41 29 50 28 15 -1 13 -6 -9 -29z m67 -32 c0 -8 -4 -18 -10 -21 -5 -3 -10 3 -10 14 0 12 5 21 10 21 6 0 10 -6 10 -14z m64 -22 c9 -3 16 -15 16 -26 0 -11 4 -16 11 -12 7 4 9 -2 7 -17 -4 -29 -54 -40 -64 -14 -5 12 -9 13 -20 4 -23 -19 -16 -27 27 -34 31 -5 45 -3 60 11 16 14 19 15 19 2 0 -9 3 -29 6 -46 6 -29 4 -31 -29 -37 -48 -9 -75 1 -97 37 -12 20 -20 26 -25 18 -6 -9 -9 -9 -16 1 -4 7 -4 18 1 24 5 6 8 21 5 33 -5 28 11 37 31 18 21 -21 58 -3 51 25 -6 21 -5 22 17 13z m-269 -66 c0 -5 17 -16 39 -23 52 -18 65 -33 24 -27 -45 7 -78 30 -78 55 0 11 3 17 8 13 4 -4 7 -12 7 -18z m125 18 c0 -2 -7 -7 -16 -10 -8 -3 -12 -2 -9 4 6 10 25 14 25 6z m-40 -15 c0 -4 -11 -6 -25 -3 -14 2 -25 6 -25 8 0 2 11 4 25 4 14 0 25 -4 25 -9z m60 -5 c0 -2 -7 -6 -15 -10 -8 -3 -15 -1 -15 4 0 6 7 10 15 10 8 0 15 -2 15 -4z m-43 -22 c-3 -3 -12 -4 -19 -1 -8 3 -5 6 6 6 11 1 17 -2 13 -5z m34 -165 c21 -7 39 -16 39 -20 0 -14 -69 14 -102 41 -18 15 -42 43 -52 61 -16 27 -10 24 28 -18 31 -35 61 -57 87 -64z m164 23 c-10 -10 -54 14 -64 35 l-11 24 39 -28 c22 -15 38 -29 36 -31z"
       id="path2"
       style="fill:#000000;fill-opacity:0" />
    <path
       d="M110 116 c19 -21 44 -42 55 -48 11 -6 18 -9 15 -6 -3 2 -27 24 -55 48 -48 42 -48 42 -15 6z"
       id="path4"
       style="fill:#000000;fill-opacity:0" />
    <path
       d="M137 528 c-31 -31 -31 -32 -2 -8 16 14 34 28 40 32 5 5 6 8 2 8 -4 0 -22 -15 -40 -32z"
       id="path6"
       style="fill:#000000;fill-opacity:0" />
    <path
       d="M221 428 c-14 -23 -14 -23 8 -4 22 20 25 26 13 26 -4 0 -13 -10 -21 -22z"
       id="path8"
       style="fill:#000000;fill-opacity:0" />
  </g>
  <path
     style="opacity:0.5;fill:#ffffff;fill-opacity:1;stroke:none;stroke-width:0.12384356;stroke-opacity:1"
     d="M 40.882812 3.2792969 C 39.042181 3.2326204 37.135734 3.3880165 36.03125 3.7050781 C 35.395062 3.8877073 35.374212 3.907412 35.451172 4.2578125 C 35.567926 4.7893921 35.427954 5.0925063 34.878906 5.4902344 C 34.609714 5.6852359 34.437484 5.8739325 34.496094 5.9101562 C 34.773781 6.0817765 37.048173 6.2464353 40.65625 6.3574219 C 46.101884 6.5249329 48.844766 6.9420395 52.664062 8.1816406 C 58.134147 9.9570201 62.568355 12.696996 66.476562 16.716797 C 71.896703 22.291682 75.077072 29.376125 75.884766 37.673828 C 76.046149 39.331942 76.045056 43.375561 75.882812 45.017578 C 74.820961 55.764305 69.50933 64.893684 61.044922 70.521484 C 56.61427 73.467328 51.640151 75.297163 46.103516 76.019531 C 35.347419 77.422887 24.153997 73.797084 16.529297 66.4375 C 13.822635 63.824949 11.973133 61.286635 10.162109 57.699219 C 8.9793369 55.356283 8.2156826 54.12456 7.4414062 53.316406 C 6.9887595 52.843947 6.8773241 52.787655 6.5507812 52.859375 C 6.249639 52.925518 6.1519192 52.890548 6.0390625 52.679688 C 5.8383713 52.304692 5.8721664 50.269411 6.1015625 48.947266 C 6.3099161 47.746399 6.3869108 46.174019 6.2441406 46.03125 C 6.1970683 45.984177 5.9912652 46.107223 5.7851562 46.304688 C 5.0280122 47.030067 4.7230055 46.340773 4.5429688 43.490234 C 4.3496254 40.429026 4.6658379 36.490154 5.2109375 35.185547 C 5.3160601 34.933953 5.5468723 34.672302 5.7480469 34.576172 C 6.1753584 34.371985 6.2464879 34.009154 5.96875 33.458984 C 5.6394117 32.806601 5.1639452 32.367185 4.7871094 32.367188 C 3.7392083 32.367187 3.0592971 34.729094 2.7949219 39.287109 C 2.2646422 48.429507 4.800021 56.790626 10.564453 64.908203 C 12.038135 66.983467 13.372004 68.462033 15.109375 69.941406 C 19.23547 73.45478 23.802469 75.994312 26.832031 76.460938 C 27.525754 76.567776 27.796072 76.549745 28.628906 76.335938 C 29.167685 76.197614 29.79398 76.083984 30.021484 76.083984 C 30.378946 76.083984 30.435547 76.125929 30.435547 76.390625 C 30.435547 76.559088 30.316211 76.943034 30.169922 77.244141 C 29.663355 78.28681 30.06177 78.400945 32.449219 77.894531 C 34.323211 77.497034 35.048795 77.418346 35.443359 77.568359 C 35.753133 77.686134 35.769399 77.729227 35.693359 78.236328 L 35.613281 78.779297 L 36.169922 78.992188 C 36.475978 79.109059 37.0241 79.247751 37.388672 79.300781 C 39.034027 79.540092 42.683197 79.37869 44.677734 78.978516 C 45.809716 78.751402 46.4335 78.464789 46.59375 78.099609 C 46.660163 77.948267 46.883802 77.753076 47.089844 77.666016 C 47.516302 77.485825 49.083497 77.468063 50.933594 77.623047 C 51.999956 77.71238 52.195575 77.700376 52.335938 77.53125 C 52.468058 77.372068 52.469738 77.25317 52.345703 76.910156 C 52.09721 76.222964 52.229305 76.083738 53.125 76.085938 C 53.55285 76.086989 54.2378 76.168898 54.646484 76.267578 C 55.620983 76.502875 56.430258 76.5088 56.517578 76.28125 C 56.554425 76.185227 56.495772 75.937577 56.388672 75.730469 C 56.281577 75.523362 56.195315 75.210776 56.195312 75.037109 C 56.195312 74.76197 56.24668 74.720703 56.605469 74.720703 C 56.831937 74.720703 57.427076 74.860966 57.927734 75.03125 C 59.407214 75.534454 59.605705 75.457363 59.21875 74.53125 C 59.035114 74.091749 59.037891 74.043899 59.261719 73.742188 C 59.645386 73.224992 60.2845 73.069274 62.076172 73.058594 L 63.6875 73.048828 L 63.654297 72.523438 C 63.631278 72.158446 63.713959 71.816516 63.923828 71.408203 C 65.345471 68.642302 72.107026 62.818628 72.728516 63.824219 C 72.770613 63.892333 72.917279 63.947266 73.056641 63.947266 C 73.283488 63.947266 73.302801 63.891123 73.238281 63.419922 C 72.932092 61.183753 73.033474 59.86301 73.550781 59.345703 C 73.807153 59.08933 74.023014 59.085016 74.943359 59.3125 L 75.302734 59.400391 L 75.201172 58.794922 C 75.145769 58.461535 75.098703 57.799063 75.095703 57.322266 C 75.089195 56.299834 75.426796 55.515561 76.306641 54.509766 C 76.605166 54.168507 77.008473 53.575738 77.203125 53.191406 C 77.544001 52.518358 77.556393 52.424903 77.556641 50.695312 C 77.556866 48.96172 77.56965 48.880406 77.898438 48.3125 C 78.085738 47.988959 78.373921 47.486751 78.539062 47.197266 C 78.972749 46.437091 79.241819 44.948863 79.318359 42.894531 C 79.436244 39.730445 78.993862 36.666723 78.082031 34.347656 C 77.50799 32.887693 77.35294 31.769071 77.632812 31.095703 C 77.91672 30.412658 77.670382 29.798253 76.625 28.589844 C 75.691344 27.510585 75.089497 26.202457 75.091797 25.251953 C 75.092784 24.840514 75.139485 24.297374 75.195312 24.044922 C 75.363595 23.284108 75.256676 23.172053 74.587891 23.419922 C 73.959561 23.652798 73.776878 23.598227 73.365234 23.046875 C 73.047359 22.621117 72.950736 21.148102 73.160156 19.923828 C 73.246326 19.420087 73.283915 18.917379 73.242188 18.808594 C 73.173343 18.629177 73.131901 18.629486 72.796875 18.802734 C 72.475907 18.96871 72.362831 18.972103 71.933594 18.824219 C 70.284022 18.255896 65.432613 13.770638 64.113281 11.59375 C 63.791398 11.062646 63.690753 10.756101 63.689453 10.310547 C 63.688527 9.9885671 63.642061 9.679243 63.587891 9.625 C 63.533718 9.570758 62.801124 9.5440851 61.958984 9.5644531 C 60.638274 9.5963961 60.34923 9.5662956 59.859375 9.3496094 C 59.138934 9.0309261 58.94088 8.6507529 59.216797 8.1171875 C 59.661807 7.2566336 59.390442 7.1662254 57.859375 7.6660156 C 57.327504 7.8396359 56.74921 7.9656765 56.574219 7.9453125 C 56.175849 7.8989542 56.099904 7.5198713 56.380859 6.9765625 C 56.492095 6.7614626 56.554428 6.5061792 56.517578 6.4101562 C 56.429569 6.1808089 55.503556 6.1871659 54.523438 6.4238281 C 53.74987 6.6106137 52.765099 6.6626624 52.427734 6.5332031 C 52.210192 6.4497242 52.155409 5.8033321 52.355469 5.6796875 C 52.423583 5.6375907 52.478516 5.4941915 52.478516 5.3632812 C 52.478516 5.0205961 52.014081 4.9456811 50.699219 5.0722656 C 48.067623 5.3256146 46.805219 5.1566988 46.605469 4.5273438 C 46.456452 4.0578332 45.063047 3.6565405 42.669922 3.3945312 C 42.103588 3.3325278 41.49636 3.2948557 40.882812 3.2792969 z M 26.824219 5.5488281 C 25.498722 5.5504347 22.716737 7.0090822 19.599609 9.3789062 C 15.975364 12.134272 11.874569 16.289197 9.6035156 19.505859 C 7.8028707 22.056248 4.9436708 27.327646 4.8339844 28.300781 C 4.7534916 29.01491 4.9361264 29.102705 5.9453125 28.839844 C 7.5599761 28.419278 8.5784791 27.629691 9.4960938 26.082031 C 10.555089 24.295917 11.032784 22.414699 10.908203 20.535156 C 10.849951 19.656313 10.875354 19.336276 11.025391 19.048828 C 11.724876 17.708724 13.20547 17.489152 14.048828 18.601562 C 14.819197 19.61771 15.581154 19.922807 17.308594 19.904297 C 19.801006 19.877598 22.762035 18.773241 26.021484 16.654297 C 29.224171 14.572255 32.371318 13.294922 34.300781 13.294922 C 36.032836 13.294922 37.897368 14.082902 39.164062 15.349609 C 40.774908 16.960436 41.259601 18.729752 40.775391 21.222656 C 40.499121 22.645007 40.570208 23.402299 41.017578 23.787109 C 41.198362 23.942613 41.486722 24.070312 41.658203 24.070312 C 42.125143 24.070313 41.987448 24.440697 41.394531 24.777344 C 41.122652 24.931711 40.23143 25.316661 39.414062 25.632812 C 35.930771 26.98018 32.186046 29.162757 30.097656 31.0625 C 29.112533 31.958636 28.790411 32.416399 28.707031 33.041016 C 28.64312 33.519772 28.609036 33.553185 27.986328 33.759766 C 26.983102 34.092585 25.447178 34.325422 23.326172 34.466797 C 22.263891 34.537603 20.521832 34.655424 19.455078 34.726562 C 16.295396 34.937304 13.539772 35.498706 12.824219 36.078125 C 12.586525 36.270598 12.571423 36.329141 12.714844 36.501953 C 12.985774 36.828403 14.110081 37.084238 15.730469 37.1875 C 17.956519 37.329366 18.080012 37.329302 19.970703 37.193359 C 23.953023 36.907025 27.692052 35.873193 29.666016 34.513672 C 30.684732 33.812056 30.947919 33.395147 31.054688 32.304688 C 31.125612 31.580188 31.216902 31.288304 31.478516 30.945312 C 32.121704 30.102067 33.490094 29.716331 34.197266 30.179688 C 34.50355 30.38036 34.768131 31.034053 34.769531 31.597656 C 34.771372 32.350883 35.440622 33.234375 36.009766 33.234375 C 36.664417 33.234375 37.246094 32.158253 37.246094 30.949219 C 37.246094 28.858238 37.963773 27.508317 39.263672 27.154297 C 40.522813 26.811378 43.68902 27.3323 45 28.097656 C 45.818844 28.575704 46.122877 29.271048 45.787109 29.898438 C 45.585332 30.275449 45.822673 30.185655 46.675781 29.5625 C 48.351178 28.338704 50.063655 26.216825 49.841797 25.638672 C 49.792592 25.510447 49.62269 25.431641 49.394531 25.431641 C 49.001013 25.431641 48.755265 25.705323 48.359375 26.578125 C 47.729584 27.966602 46.22547 26.157614 45.191406 22.769531 C 44.56191 20.707002 44.408516 19.711627 44.316406 17.072266 C 44.235513 14.754307 44.208349 14.549531 43.902344 13.882812 C 43.500681 13.007687 42.512751 11.941988 41.576172 11.373047 C 40.457062 10.693223 38.543634 9.9855886 36.226562 9.3964844 C 30.810359 8.0194387 29.830773 8.3077181 23.996094 12.988281 C 20.190365 16.041228 18.114977 17.498982 16.429688 18.306641 C 15.290153 18.852746 14.955078 18.875384 14.955078 18.402344 C 14.955078 17.313345 17.545517 14.840036 21.632812 12.025391 C 25.43283 9.4085775 27.736076 7.4747185 27.917969 6.75 C 28.017911 6.3517996 27.739984 5.8498082 27.300781 5.6386719 C 27.174221 5.5778313 27.013575 5.5485986 26.824219 5.5488281 z M 23.580078 7.9785156 C 23.744146 7.962906 23.87571 8.0000927 23.933594 8.09375 C 24.092847 8.3514262 23.522741 9.0070945 22.447266 9.8027344 C 21.834241 10.256253 20.496318 11.325596 19.474609 12.179688 C 18.4529 13.033767 17.198354 14.070893 16.6875 14.484375 C 14.653021 16.131068 14.570576 15.977666 16.433594 14.015625 C 18.362934 11.983737 21.791526 8.9518632 23.03125 8.1796875 C 23.219162 8.0626449 23.416011 7.9941253 23.580078 7.9785156 z M 52.222656 13.666016 C 51.282598 13.666016 50.739972 14.35639 49.568359 17.035156 C 48.376885 19.759331 48.453786 20.419493 50.201172 22.357422 C 52.912787 25.364721 55.818779 31.003936 57.78125 37.072266 C 58.449724 39.139316 58.826958 40.676349 59.287109 43.203125 C 59.805743 46.051043 60.327272 47.750584 60.873047 48.373047 C 61.123662 48.658878 61.291165 48.647928 61.988281 48.294922 C 62.728782 47.919946 63.5677 47.668316 65.355469 47.287109 C 71.590684 45.957573 73.422983 40.848622 70.505859 32.923828 C 69.917686 31.325968 67.446366 26.314368 66.537109 24.875 C 64.558709 21.743159 62.344845 19.69025 57.392578 16.398438 C 54.341796 14.37055 53.009083 13.666016 52.222656 13.666016 z M 33.785156 14.787109 C 32.829192 14.720645 30.592666 15.699436 27.554688 17.53125 C 25.408819 18.825143 23.424121 20.212274 21.208984 21.962891 C 18.254901 24.297494 15.069349 26.437356 12.353516 27.912109 C 7.0248915 30.805658 6.5351359 31.11571 6.9042969 31.375 C 7.1792132 31.568096 8.3580965 31.405999 10.0625 30.939453 C 12.84417 30.178025 15.694671 28.874394 17.611328 27.488281 C 19.395806 26.19776 21.092489 25.542359 23.533203 25.199219 C 25.110883 24.977412 27.067667 23.814486 29.060547 21.912109 C 31.959113 19.145176 33.159393 18.679457 35.931641 19.248047 C 37.91493 19.654819 38.212797 19.494542 37.857422 18.214844 C 37.700744 17.650648 37.081735 16.911457 36.679688 16.810547 C 36.51914 16.770255 36.108298 16.809164 35.767578 16.896484 C 35.207361 17.040064 35.123756 17.033804 34.896484 16.828125 C 34.754888 16.699983 34.646484 16.444891 34.646484 16.244141 C 34.646484 15.826999 34.331119 15.018055 34.115234 14.880859 C 34.032268 14.828134 33.921723 14.796604 33.785156 14.787109 z M 33.421875 21.861328 C 31.94932 21.944704 29.616731 23.280288 26.8125 25.648438 C 26.012124 26.324339 24.910102 27.200035 24.363281 27.59375 C 23.148842 28.468152 21.379056 29.394531 20.923828 29.394531 C 20.200097 29.394531 18.272314 30.067563 16.082031 31.083984 C 14.697127 31.726662 11.677451 33.386305 11.240234 33.744141 L 10.929688 33.996094 L 11.300781 33.912109 C 13.695864 33.366936 15.871533 32.936881 17.554688 32.677734 C 22.08779 31.979791 23.461452 31.631401 25.056641 30.771484 C 25.752232 30.396513 25.975377 30.199536 26.230469 29.732422 C 26.403627 29.41534 26.682197 29.009623 26.849609 28.830078 C 27.121209 28.538791 27.217701 28.509796 27.753906 28.572266 C 28.236616 28.628503 28.472208 28.584479 28.947266 28.34375 C 29.873894 27.874191 31.244796 26.71726 32.703125 25.175781 C 35.245791 22.488141 35.40614 21.748979 33.421875 21.861328 z M 32.392578 22.583984 C 32.59527 22.583984 32.881055 22.680742 33.029297 22.800781 C 33.263345 22.990301 33.281994 23.066768 33.164062 23.376953 C 32.936182 23.976349 29.888775 26.932721 28.580078 27.824219 C 27.951753 28.252244 27.945025 28.117857 28.535156 27.052734 C 29.845573 24.687566 31.662041 22.583984 32.392578 22.583984 z M 39.957031 28.095703 C 39.849974 28.11233 39.745761 28.151749 39.646484 28.216797 C 38.70041 28.836688 38.425605 31.689278 39.234375 32.498047 C 39.555545 32.819219 39.753417 32.802327 40.214844 32.414062 C 41.211583 31.57537 41.571066 29.485667 40.878906 28.558594 C 40.617643 28.20866 40.278203 28.045821 39.957031 28.095703 z M 47.541016 32.203125 C 47.349192 32.216618 47.327531 32.300847 47.298828 32.601562 C 47.276726 32.833097 47.382076 33.501088 47.53125 34.085938 C 47.864324 35.391768 47.808417 36.190766 47.322266 37.083984 C 46.618579 38.37689 45.321073 39.094856 43.683594 39.097656 C 42.548797 39.099609 41.70258 38.755526 40.744141 37.904297 C 39.73524 37.00825 39.041087 36.653584 38.287109 36.646484 C 37.511989 36.639161 37.119445 36.935122 36.800781 37.769531 C 36.592744 38.314274 36.593989 38.479407 36.826172 41.222656 C 36.94333 42.60688 36.700821 43.565797 35.855469 45.060547 C 35.478169 45.727635 35.478906 46.945281 35.857422 47.677734 C 36.136155 48.217101 36.780204 48.837891 37.060547 48.837891 C 37.152226 48.837891 37.48854 48.530876 37.808594 48.15625 C 38.156136 47.749447 38.491921 47.476563 38.640625 47.476562 C 39.311946 47.476562 39.997067 48.2128 41.523438 50.572266 C 43.358386 53.408737 45.578498 55.046225 48.240234 55.529297 C 49.373904 55.735045 52.652739 55.579953 54.460938 55.234375 C 56.72976 54.800763 57.377196 54.589498 57.892578 54.117188 C 58.509413 53.551902 58.533357 53.011994 58.064453 50.300781 C 57.577485 47.485125 57.308594 45.423824 57.308594 44.505859 C 57.308594 43.616021 57.14651 43.140625 56.839844 43.140625 C 56.714159 43.140625 56.140575 43.530937 55.566406 44.007812 C 53.258531 45.924628 52.585965 46.237745 50.560547 46.328125 C 47.501965 46.464601 42.332863 45.326777 41.662109 44.369141 C 41.112604 43.584613 41.725342 42.518278 43.482422 41.207031 C 44.701367 40.297375 45.212759 40.457227 45.929688 41.974609 C 46.369741 42.905989 46.953222 43.40634 47.939453 43.699219 C 50.0554 44.327588 52.798997 43.241414 53.917969 41.332031 C 54.292713 40.692573 54.564159 38.915694 54.382812 38.291016 C 54.252693 37.842792 54.199755 37.83196 53.015625 38.009766 C 52.554875 38.078952 52.477517 38.053243 52.289062 37.765625 C 52.16492 37.576157 52.031904 36.999032 51.964844 36.361328 C 51.831083 35.089417 51.347479 33.9569 50.691406 33.380859 C 50.202968 32.952005 48.460695 32.245331 47.796875 32.207031 C 47.688202 32.200762 47.604957 32.198627 47.541016 32.203125 z M 29.697266 38.714844 C 29.243095 38.742249 28.672475 38.932625 28.162109 39.275391 C 27.630686 39.632299 27.144387 40.325141 27.275391 40.537109 C 27.592684 41.050501 30.623366 39.744908 30.535156 39.132812 C 30.490586 38.82354 30.151436 38.687439 29.697266 38.714844 z M 12.613281 39.113281 C 12.26471 39.185583 12.067586 39.914277 12.128906 41.082031 C 12.17331 41.927605 12.249256 42.213819 12.599609 42.871094 C 13.918033 45.344504 17.581737 47.375958 22.136719 48.158203 C 23.503274 48.39289 25.286875 48.39187 25.482422 48.15625 C 25.898917 47.654405 23.383948 46.246781 19.660156 44.898438 C 17.083005 43.965277 16.405978 43.664437 15.361328 42.982422 C 14.273911 42.272486 14.011292 41.963646 13.914062 41.283203 C 13.818242 40.612603 13.349691 39.571282 13.007812 39.267578 C 12.861681 39.137762 12.729472 39.089181 12.613281 39.113281 z M 22.025391 40.070312 C 21.446718 40.052785 20.838548 40.079116 20.246094 40.158203 C 19.055878 40.317085 18.792969 40.388448 18.792969 40.552734 C 18.792969 40.805966 20.439126 41.302906 22.246094 41.595703 C 23.898229 41.863411 25.234375 41.671122 25.234375 41.166016 C 25.234375 40.569593 23.761408 40.122908 22.025391 40.070312 z M 31.765625 41.439453 C 30.811005 41.36579 29.942289 41.619825 29.630859 42.064453 C 29.379237 42.423696 29.393499 42.975545 29.660156 43.130859 C 29.779354 43.200289 30.155524 43.259619 30.496094 43.261719 C 31.007665 43.264825 31.292743 43.164768 32.130859 42.691406 C 32.688821 42.376273 33.176161 42.041042 33.212891 41.945312 C 33.306064 41.702514 32.774238 41.517283 31.765625 41.439453 z M 26.25 44.203125 C 25.656618 44.207748 25.010444 44.252304 24.8125 44.302734 C 24.491628 44.384485 24.472046 44.415405 24.638672 44.582031 C 24.741462 44.684821 25.043156 44.848986 25.308594 44.947266 C 25.918243 45.172993 26.965105 45.110036 27.404297 44.822266 C 27.716182 44.617911 27.725667 44.588634 27.535156 44.398438 C 27.374601 44.238141 27.095676 44.196525 26.25 44.203125 z M 15.869141 53.707031 C 15.623044 53.942401 17.604792 57.190094 19.244141 59.240234 C 20.744331 61.116345 23.784037 64.048522 25.234375 65.017578 C 28.33576 67.089793 32.147219 68.907342 34.953125 69.652344 C 36.639353 70.100057 37.776296 69.766701 36.9375 69.070312 C 36.446225 68.662444 34.367747 67.667051 32.974609 67.171875 C 29.482722 65.930721 28.508908 65.431182 26.128906 63.650391 C 24.760073 62.626187 22.547041 60.474367 18.34375 56.082031 C 17.040758 54.720436 15.927071 53.651621 15.869141 53.707031 z M 44.353516 56.302734 C 44.267645 56.388605 45.525663 59.095802 45.919922 59.673828 C 46.919776 61.139725 49.405536 62.922992 51.460938 63.648438 C 52.384639 63.974454 53.426965 64.035122 53.771484 63.783203 C 53.98316 63.628422 53.97225 63.592926 53.595703 63.164062 C 53.37598 62.913814 52.687453 62.302 52.064453 61.804688 C 50.559559 60.603397 44.427816 56.228434 44.353516 56.302734 z M 11.644531 63.716797 C 11.672668 63.663457 11.877448 63.785978 12.265625 64.105469 C 14.033993 65.560931 24.038137 74.344961 24.097656 74.494141 C 24.181567 74.704453 23.783618 74.576701 22.818359 74.083984 C 21.433529 73.377099 20.782467 72.9254 19.025391 71.449219 C 17.310313 70.008324 15.073804 67.782494 12.919922 65.373047 C 12.038181 64.386685 11.597636 63.805696 11.644531 63.716797 z "
     transform="scale(0.75000002)"
     id="path902" />
</svg>
