<?xml version="1.0" encoding="UTF-8" standalone="no"?>
<!-- Generator: Adobe Illustrator 12.0.1, SVG Export Plug-In . SVG Version: 6.00 Build 51448)  -->

<svg
   xmlns:dc="http://purl.org/dc/elements/1.1/"
   xmlns:cc="http://creativecommons.org/ns#"
   xmlns:rdf="http://www.w3.org/1999/02/22-rdf-syntax-ns#"
   xmlns:svg="http://www.w3.org/2000/svg"
   xmlns="http://www.w3.org/2000/svg"
   xmlns:xlink="http://www.w3.org/1999/xlink"
   xmlns:sodipodi="http://sodipodi.sourceforge.net/DTD/sodipodi-0.dtd"
   xmlns:inkscape="http://www.inkscape.org/namespaces/inkscape"
   version="1.1"
   id="Layer_1"
   width="130.41"
   height="96.78"
   viewBox="0 0 130.41 96.78"
   overflow="visible"
   enable-background="new 0 0 130.41 96.78"
   xml:space="preserve"
   sodipodi:docname="dbpedia.svg"
   inkscape:version="0.92.2 5c3e80d, 2017-08-06"><metadata
     id="metadata75"><rdf:RDF><cc:Work
         rdf:about=""><dc:format>image/svg+xml</dc:format><dc:type
           rdf:resource="http://purl.org/dc/dcmitype/StillImage" /></cc:Work></rdf:RDF></metadata><defs
     id="defs73"><radialGradient
       inkscape:collect="always"
       xlink:href="#XMLID_18_"
       id="radialGradient882"
       gradientUnits="userSpaceOnUse"
       cx="131.353"
       cy="59.6313"
       r="55.6664" /><radialGradient
       inkscape:collect="always"
       xlink:href="#XMLID_18_"
       id="radialGradient884"
       gradientUnits="userSpaceOnUse"
       cx="131.353"
       cy="59.6313"
       r="55.6664" /><radialGradient
       inkscape:collect="always"
       xlink:href="#XMLID_18_"
       id="radialGradient886"
       gradientUnits="userSpaceOnUse"
       cx="131.353"
       cy="59.6313"
       r="55.6664" /><radialGradient
       inkscape:collect="always"
       xlink:href="#XMLID_18_"
       id="radialGradient888"
       gradientUnits="userSpaceOnUse"
       cx="131.353"
       cy="59.6313"
       r="55.6664" /><radialGradient
       inkscape:collect="always"
       xlink:href="#XMLID_18_"
       id="radialGradient890"
       gradientUnits="userSpaceOnUse"
       cx="131.353"
       cy="59.6313"
       r="55.6664" /><radialGradient
       inkscape:collect="always"
       xlink:href="#XMLID_18_"
       id="radialGradient892"
       gradientUnits="userSpaceOnUse"
       cx="131.353"
       cy="59.6313"
       r="55.6664" /><radialGradient
       inkscape:collect="always"
       xlink:href="#XMLID_18_"
       id="radialGradient894"
       gradientUnits="userSpaceOnUse"
       cx="131.353"
       cy="59.6313"
       r="55.6664" /><radialGradient
       inkscape:collect="always"
       xlink:href="#XMLID_18_"
       id="radialGradient896"
       gradientUnits="userSpaceOnUse"
       cx="131.353"
       cy="59.6313"
       r="55.6664" /><radialGradient
       inkscape:collect="always"
       xlink:href="#XMLID_18_"
       id="radialGradient898"
       gradientUnits="userSpaceOnUse"
       cx="131.353"
       cy="59.6313"
       r="55.6664" /></defs><sodipodi:namedview
     pagecolor="#ffffff"
     bordercolor="#666666"
     borderopacity="1"
     objecttolerance="10"
     gridtolerance="10"
     guidetolerance="10"
     inkscape:pageopacity="0"
     inkscape:pageshadow="2"
     inkscape:window-width="1440"
     inkscape:window-height="855"
     id="namedview71"
     showgrid="false"
     inkscape:zoom="6.2051718"
     inkscape:cx="92.429265"
     inkscape:cy="129.67226"
     inkscape:window-x="0"
     inkscape:window-y="301"
     inkscape:window-maximized="1"
     inkscape:current-layer="Layer_1" /><g
     id="g68"
     transform="translate(-66.651,-0.07799585)"><g
       id="g4"><path
         d="m 184.007,65.5 c -1.928,0.029 -4.055,-0.01 -6.305,-0.049 C 163.736,65.202 143.662,64.867 131.859,80.32 120.055,64.867 99.982,65.203 86.014,65.451 c -2.25,0.039 -4.376,0.078 -6.303,0.049 -0.462,-0.005 -4.855,0.136 -13.06,0.418 0,0 0.556,10.304 7.805,10.304 2.603,0 4.485,-0.061 5.18,-0.066 2.023,0.027 4.23,-0.012 6.567,-0.052 19.06,-0.34 34.179,0.724 40.959,17.364 l 1.352,3.318 h 3.104 0.476 3.106 l 1.353,-3.318 c 6.779,-16.64 21.897,-17.705 40.958,-17.364 2.338,0.041 4.545,0.08 6.568,0.052 0.693,0.005 2.577,0.066 5.179,0.066 7.251,0 7.806,-10.304 7.806,-10.304 -8.203,-0.282 -12.597,-0.422 -13.057,-0.418 z"
         id="path2"
         inkscape:connector-curvature="0"
         style="fill:#004563" /></g><g
       id="g29"><radialGradient
         id="XMLID_17_"
         cx="130.28909"
         cy="61.586399"
         r="63.037201"
         gradientUnits="userSpaceOnUse"><stop
           offset="0"
           style="stop-color:#6D8896"
           id="stop6" /><stop
           offset="0.0435"
           style="stop-color:#4B7487"
           id="stop8" /><stop
           offset="0.0933"
           style="stop-color:#286379"
           id="stop10" /><stop
           offset="0.1494"
           style="stop-color:#00556C"
           id="stop12" /><stop
           offset="0.2114"
           style="stop-color:#004962"
           id="stop14" /><stop
           offset="0.2815"
           style="stop-color:#004059"
           id="stop16" /><stop
           offset="0.3633"
           style="stop-color:#003951"
           id="stop18" /><stop
           offset="0.4644"
           style="stop-color:#00344C"
           id="stop20" /><stop
           offset="0.6062"
           style="stop-color:#003149"
           id="stop22" /><stop
           offset="1"
           style="stop-color:#003048"
           id="stop24" /></radialGradient><path
         d="m 137.327,1.135 v 0 c -2.923,1.367 -5.142,3.79 -6.243,6.822 -0.487,1.347 -0.73,2.741 -0.73,4.132 0,1.746 0.382,3.487 1.146,5.117 1.781,3.813 5.409,6.26 9.504,6.761 0.106,1.142 0.227,2.284 0.227,3.441 0,0.553 -0.041,1.108 -0.064,1.663 -0.494,0.127 -1.016,0.134 -1.482,0.352 -2.007,0.936 -3.525,2.597 -4.28,4.677 -0.335,0.922 -0.501,1.878 -0.501,2.831 0,1.198 0.264,2.391 0.785,3.508 0.48,1.023 1.215,1.864 2.054,2.605 -1.188,2.629 -2.685,5.213 -4.495,7.717 -0.17,-0.039 -0.337,-0.076 -0.51,-0.104 -0.546,-3.015 -1.326,-5.929 -2.355,-8.693 0.611,-1.083 1.019,-2.25 1.019,-3.462 0,-1.022 -0.22,-2.049 -0.671,-3.015 -1.11,-2.374 -3.376,-3.848 -5.931,-4.045 -2.954,-4.181 -6.559,-7.778 -10.724,-10.754 0.114,-0.599 0.311,-1.194 0.311,-1.79 0,-3.917 -2.425,-7.612 -6.304,-9.027 -4.965,-1.802 -10.471,0.773 -12.274,5.736 -0.873,2.406 -0.758,5.007 0.325,7.325 1.083,2.318 3.005,4.074 5.411,4.947 2.871,1.041 5.989,0.458 8.492,-1.206 3.171,2.25 5.937,4.973 8.266,8.116 -0.728,1.152 -1.239,2.411 -1.239,3.753 0,1.019 0.221,2.047 0.672,3.017 1.162,2.48 3.579,3.991 6.215,4.089 0.704,2.128 1.263,4.369 1.655,6.709 -0.221,0.171 -0.45,0.333 -0.653,0.524 -3.313,-2.269 -6.775,-4.13 -10.358,-5.501 -0.126,-0.428 -0.254,-0.866 -0.254,-0.866 -0.814,-1.739 -2.254,-3.056 -4.058,-3.709 -1.8,-0.651 -3.746,-0.562 -5.479,0.25 -0.769,0.357 -1.421,0.894 -2.017,1.508 -3.976,-0.389 -7.964,-0.2 -11.908,0.452 -2.589,-3.858 -7.619,-5.437 -11.945,-3.411 -4.791,2.242 -6.865,7.961 -4.625,12.749 2.243,4.789 7.962,6.861 12.749,4.625 2.829,-1.323 4.69,-3.887 5.262,-6.873 2.897,-0.482 5.836,-0.668 8.795,-0.445 0.093,0.301 0.097,0.634 0.23,0.92 1.675,3.583 5.949,5.137 9.529,3.465 0.778,-0.366 1.44,-0.89 2.031,-1.491 3.123,1.308 6.182,3.037 9.123,5.205 0.017,1.311 0.299,2.604 0.859,3.788 1.04,2.234 2.896,3.934 5.222,4.778 2.328,0.846 4.844,0.734 7.086,-0.314 2.479,-1.159 4.206,-3.33 4.926,-5.916 5.223,-0.753 10.094,-2.186 14.519,-4.296 2.022,1.218 4.49,1.486 6.673,0.465 2.572,-1.205 4.115,-3.771 4.115,-6.487 0,-0.326 -0.113,-0.656 -0.159,-0.986 2.217,-1.971 4.24,-4.171 6.056,-6.563 2.378,0.585 4.858,0.482 7.111,-0.574 2.606,-1.22 4.579,-3.381 5.557,-6.081 2.025,-5.579 -0.866,-11.765 -6.449,-13.798 -5.58,-2.019 -11.771,0.872 -13.802,6.45 -0.432,1.193 -0.642,2.428 -0.642,3.655 0,2.296 0.765,4.537 2.149,6.408 -1.337,1.731 -2.826,3.35 -4.466,4.834 -1.793,-0.684 -3.767,-0.68 -5.541,0.152 -2.42,1.128 -3.926,3.518 -4.061,6.118 -3.604,1.65 -7.58,2.787 -11.853,3.415 2.273,-3.198 4.152,-6.516 5.563,-9.915 0.61,-0.128 1.243,-0.186 1.809,-0.45 2.007,-0.937 3.527,-2.601 4.282,-4.683 0.335,-0.922 0.501,-1.876 0.501,-2.829 0,-1.198 -0.263,-2.389 -0.785,-3.506 -0.542,-1.159 -1.403,-2.093 -2.397,-2.885 0.07,-1.032 0.141,-2.066 0.141,-3.104 0,-1.579 -0.154,-3.155 -0.316,-4.729 2.639,-1.406 4.666,-3.668 5.691,-6.499 0.489,-1.345 0.731,-2.738 0.731,-4.126 0,-1.747 -0.383,-3.486 -1.145,-5.113 -2.824,-6.036 -10.035,-8.654 -16.076,-5.833 z"
         id="path27"
         style="fill:url(#XMLID_17_)"
         inkscape:connector-curvature="0" /></g><g
       id="g66"><g
         id="g64"><g
           id="g62"><radialGradient
             id="XMLID_18_"
             cx="131.353"
             cy="59.631302"
             r="55.666401"
             gradientUnits="userSpaceOnUse"><stop
               offset="0"
               style="stop-color:#FFD528"
               id="stop31" /><stop
               offset="0.222"
               style="stop-color:#FFD227"
               id="stop33" /><stop
               offset="0.4435"
               style="stop-color:#FFC925"
               id="stop35" /><stop
               offset="0.6647"
               style="stop-color:#FDBB21"
               id="stop37" /><stop
               offset="0.8846"
               style="stop-color:#FAA61D"
               id="stop39" /><stop
               offset="1"
               style="stop-color:#F8991D"
               id="stop41" /></radialGradient><path
             d="m 128.544,38.833 c 0.172,-2.384 -1.622,-4.455 -4.006,-4.626 -2.385,-0.171 -4.454,1.623 -4.625,4.007 -0.172,2.384 1.623,4.455 4.011,4.624 2.379,0.173 4.45,-1.621 4.62,-4.005 z"
             id="path44"
             style="fill:url(#radialGradient882)"
             inkscape:connector-curvature="0" /><circle
             cx="131.353"
             cy="59.631001"
             r="6.6900001"
             id="circle46"
             style="fill:url(#radialGradient884)" /><circle
             cx="82.981003"
             cy="50.263"
             r="6.493"
             id="circle48"
             style="fill:url(#radialGradient886)" /><path
             d="m 111.45,19.487 c 0.257,-3.577 -2.437,-6.684 -6.014,-6.941 -3.575,-0.253 -6.682,2.435 -6.937,6.012 -0.257,3.577 2.433,6.685 6.014,6.941 3.574,0.256 6.68,-2.436 6.937,-6.012 z"
             id="path50"
             style="fill:url(#radialGradient888)"
             inkscape:connector-curvature="0" /><path
             d="m 108.147,45.254 c -2.372,-0.171 -4.433,1.612 -4.605,3.986 -0.168,2.372 1.614,4.433 3.989,4.604 2.372,0.169 4.434,-1.616 4.605,-3.988 0.167,-2.372 -1.616,-4.434 -3.989,-4.602 z"
             id="path52"
             style="fill:url(#radialGradient890)"
             inkscape:connector-curvature="0" /><path
             d="m 174.369,26.85 c -3.894,-0.279 -7.277,2.651 -7.555,6.546 -0.279,3.895 2.651,7.277 6.544,7.557 3.897,0.281 7.277,-2.651 7.559,-6.546 0.277,-3.893 -2.653,-7.278 -6.548,-7.557 z"
             id="path54"
             style="fill:url(#radialGradient892)"
             inkscape:connector-curvature="0" /><circle
             cx="158.276"
             cy="51.766998"
             r="4.3270001"
             id="circle56"
             style="fill:url(#radialGradient894)" /><circle
             cx="143.19099"
             cy="36.931999"
             r="5.2259998"
             id="circle58"
             style="fill:url(#radialGradient896)" /><path
             d="m 143.05,3.719 c -4.624,-0.333 -8.638,3.146 -8.971,7.768 -0.328,4.625 3.147,8.64 7.77,8.971 4.626,0.33 8.638,-3.149 8.97,-7.771 0.328,-4.623 -3.146,-8.638 -7.769,-8.968 z"
             id="path60"
             style="fill:url(#radialGradient898)"
             inkscape:connector-curvature="0" /></g></g></g></g></svg>
