<?xml version="1.0"?>
<svg xmlns="http://www.w3.org/2000/svg" viewBox="0 0 512 512">
  <!-- top face -->
  <path
    d="M255.76 44.764C249.584 44.764 243.407 46.148 238.623 48.916L85.87 137.276C76.3 142.812 76.3 151.566 85.87 157.102L238.623 245.462C248.193 250.998 263.326 250.998 272.895 245.462L425.648 157.102C435.218 151.567 435.218 142.812 425.648 137.277L272.895 48.917C268.11 46.147 261.935 44.764 255.76 44.764Z"
    fill="white" />
  <!-- left face -->
  <path
    d="M75.67 173.84C69.917 173.685 66.006 178.176 66.006 186.12L66.006 343.816C66.006 354.868 73.576 367.979 83.146 373.506L230.076 458.354C239.646 463.88 247.216 459.51 247.216 448.459L247.216 290.76C247.216 279.708 239.646 266.6 230.076 261.072L83.146 176.225C80.456 174.67 77.921 173.898 75.67 173.838Z"
    fill="white" />
  <!-- right face -->
  <path
    d="M436.443 173.842C434.193 173.902 431.66 174.672 428.969 176.227L282.034 261.074C272.464 266.601 264.894 279.712 264.894 290.764L264.894 448.464C264.894 459.514 272.464 463.882 282.034 458.354L428.97 373.51C438.54 367.983 446.107 354.874 446.107 343.822L446.107 186.122C446.107 178.18 442.197 173.69 436.443 173.844Z"
    fill="white" />

  <!-- top pip -->
  <path
    d="M257.62 57.187C265.603 57.395 273.164 59.37 278.814 62.723C296.045 73.139 287.812 90.717 263.995 94.364C253.146 96.025 241.623 94.192 233.627 89.535C216.236 79.213 224.198 61.591 247.958 57.815C251.105 57.315 254.364 57.104 257.619 57.188Z"
    fill="black" />
  <!-- left pip -->
  <path
    d="M138.447 127.375C138.447 127.375 138.449 127.375 138.449 127.375C146.432 127.583 153.994 129.557 159.644 132.91C177.037 143.231 169.078 160.854 145.318 164.631C134.291 166.384 122.526 164.513 114.454 159.723C97.062 149.402 105.021 131.78 128.781 128.003C131.93 127.502 135.189 127.29 138.446 127.375Z"
    fill="black" />
  <!-- center pip -->
  <path
    d="M256.687 127.619C281.282 127.835 296.259 143.769 283.646 156.299C282.296 157.64 280.673 158.877 278.812 159.981C261.581 170.397 231.809 165.838 225.223 151.776C222.11 145.129 225.327 138.002 233.625 133.169C239.732 129.546 248.05 127.544 256.685 127.619Z"
    fill="black" />
  <!-- right pio -->
  <path
    d="M376.35 127.634C376.35 127.634 376.352 127.634 376.352 127.634C384.335 127.842 391.897 129.816 397.547 133.169C414.862 143.535 406.773 161.137 382.985 164.852C372.043 166.56 360.393 164.708 352.357 159.981C334.966 149.659 342.928 132.037 366.688 128.261C369.836 127.761 373.094 127.55 376.35 127.634Z"
    fill="black" />
  <!-- bottom pip -->
  <path
    d="M257.619 198.084C265.601 198.292 273.163 200.267 278.813 203.619C296.044 214.035 287.811 231.613 263.994 235.26C253.145 236.921 241.622 235.088 233.626 230.431C216.234 220.11 224.193 202.488 247.953 198.711C251.102 198.21 254.361 197.998 257.618 198.083Z"
    fill="black" />

  <!-- star -->
  <path
    d="m510.652344 185.882812c-3.371094-10.367187-12.566406-17.707031-23.402344-18.6875l-147.796875-13.417968-58.410156-136.75c-4.3125-10.046875-14.125-16.53125-25.046875-16.53125s-20.738282 6.484375-25.023438 16.53125l-58.410156 136.75-147.820312 13.417968c-10.835938 1-20.011719 8.339844-23.402344 18.6875-3.371094 10.367188-.257813 21.738282 7.9375 28.925782l111.722656 97.964844-32.941406 145.085937c-2.410156 10.667969 1.730468 21.699219 10.582031 28.097656 4.757813 3.457031 10.347656 5.183594 15.957031 5.183594 4.820313 0 9.644532-1.28125 13.953125-3.859375l127.445313-76.203125 127.421875 76.203125c9.347656 5.585938 21.101562 5.074219 29.933593-1.324219 8.851563-6.398437 12.992188-17.429687 10.582032-28.097656l-32.941406-145.085937 111.722656-97.964844c8.191406-7.1875 11.308594-18.535156 7.9375-28.925782zm-252.203125 223.722657"
    fill="black"
    transform="translate(90 220) scale(.25 .25) skewY(30)" />
  <!-- hand -->
  <path
    d="m410.941406 189.394531-115.855468-14.546875c9.734374-23.257812 21.015624-60.167968 21.015624-106.300781 0-25.863281-8.300781-44.929687-24.671874-56.664063-11-7.882812-25.140626-11.882812-42.023438-11.882812h-.835938l-.828124.09375c-27.738282 3.09375-36.089844 29.019531-34.96875 45.910156.140624 4.351563-.320313 8.617188-1.367188 12.675782-3.09375 11.96875-8.210938 21.945312-20.574219 46.050781l-.578125 1.121093c-8.257812 16.125-17.746094 21.917969-30.875 29.9375-11.183594 6.832032-23.859375 14.570313-37.535156 29.53125-6.1875 6.753907-13.3125 16.628907-19.640625 27.21875-1.148437 1.53125-2.121094 3.261719-2.941406 5.207032-.101563.199218-.210938.378906-.316407.558594-.300781.527343-.703124 1.226562-1.128906 2.070312-.632812 1.167969-1.335937 2.472656-2.058594 3.855469-11.875 10.308593-30.230468 10.113281-41.386718 9.988281-1.148438-.011719-2.207032-.023438-3.164063-.023438-19.558593 0-31.128906 7.671876-37.386719 14.109376-8.710937 8.949218-13.3125 21.601562-13.3125 36.585937l-.007812 163.210937c0 10.75 1.367188 26.273438 13.199219 36.980469 11.046875 10 26.699219 11.15625 37.507812 11.15625h35.699219c8.761719 0 17.207031 3.761719 27.90625 8.527344 6.042969 2.691406 12.894531 5.742187 20.734375 8.496094 36.800781 12.75 85.777344 18.6875 154.125 18.6875 13.246094 0 54.332031.050781 54.351563.050781 14.816406 0 28.761718-5.816406 40.320312-16.816406 6.125-5.820313 9.847656-13.140625 11.375-22.375.335938-2.042969.558594-6.347656.582031-8.679688.234375-5.851562-.625-11.417968-2.46875-16.53125 11.871094-1.339844 23.070313-6.464844 31.632813-14.644531 10.503906-10.039063 16.289062-23.984375 16.289062-39.273437 0-11.207032-3.550781-21.792969-10.125-30.488282 3.882813-1.914062 7.5625-4.390625 10.84375-7.582031 8.507813-8.273437 12.90625-19.742187 13.085938-34.09375.546875-14.316406-4.4375-26.765625-13.8125-35.964844 9.917968-9.894531 16.433594-24.066406 17.109375-39.78125 1.277343-29.636719-20.160157-54.773437-47.914063-56.375zm0 0"
    fill="black"
    transform="translate(300 280) scale(.25 .25) skewY(-30)" />
</svg>
