<?xml version="1.0" standalone="no"?>
<!DOCTYPE svg PUBLIC "-//W3C//DTD SVG 20010904//EN"
 "http://www.w3.org/TR/2001/REC-SVG-20010904/DTD/svg10.dtd">
<svg version="1.0" xmlns="http://www.w3.org/2000/svg"
 width="700.000000pt" height="700.000000pt" viewBox="0 0 700.000000 700.000000"
 preserveAspectRatio="xMidYMid meet">
<metadata>
Created by potrace 1.11, written by Peter Selinger 2001-2013
</metadata>
<g transform="translate(0.000000,700.000000) scale(0.100000,-0.100000)"
fill="#000000" stroke="none">
<path d="M3391 6379 c-45 -9 -132 -48 -211 -95 -25 -15 -65 -38 -90 -52 -25
-13 -70 -39 -100 -57 -62 -37 -183 -108 -310 -181 -46 -27 -92 -53 -102 -59
-9 -5 -34 -20 -55 -31 -21 -12 -234 -135 -473 -274 -239 -139 -453 -262 -475
-274 -188 -104 -436 -255 -462 -283 -49 -53 -47 -119 6 -176 25 -27 153 -107
172 -107 5 0 9 -4 9 -10 0 -5 4 -10 10 -10 5 0 31 -13 57 -28 27 -16 80 -47
118 -69 140 -82 461 -267 493 -285 54 -30 90 -51 271 -157 95 -55 175 -101
176 -101 2 0 32 -17 66 -38 35 -22 84 -50 109 -64 25 -14 112 -64 193 -112 82
-47 153 -86 158 -86 5 0 9 -4 9 -10 0 -5 4 -10 9 -10 6 0 80 -41 166 -91 182
-107 244 -129 358 -129 141 0 153 5 507 210 107 62 308 178 445 257 138 80
287 167 333 194 45 27 86 49 91 49 5 0 11 3 13 8 2 4 17 14 33 23 54 29 553
317 594 343 22 14 42 26 45 26 2 0 33 17 67 38 61 37 138 81 187 107 41 22 83
66 98 101 19 45 5 100 -33 136 -24 23 -365 228 -379 228 -3 0 -17 9 -32 19
-15 10 -135 81 -267 157 -132 75 -304 175 -383 221 -79 45 -144 83 -146 83 -2
0 -44 24 -93 54 -49 29 -109 64 -133 78 -25 14 -61 34 -80 45 -19 12 -149 87
-288 167 -139 81 -263 152 -275 159 -12 6 -29 17 -37 23 -8 6 -46 23 -83 38
-75 30 -205 41 -286 25z"/>
<path d="M996 4615 c-50 -17 -62 -30 -79 -78 -20 -60 -21 -2255 -1 -2334 33
-131 126 -254 242 -321 395 -228 866 -500 902 -520 25 -14 57 -33 72 -43 14
-11 29 -19 32 -19 4 0 35 -17 69 -38 35 -21 70 -41 77 -45 8 -4 29 -15 45 -26
17 -10 138 -80 270 -156 132 -76 292 -168 355 -205 179 -105 208 -119 249
-126 50 -8 100 16 126 59 20 31 20 61 22 1179 l3 1148 -23 63 c-61 166 -115
223 -339 352 -9 6 -68 39 -130 75 -62 36 -138 79 -168 96 -53 30 -355 205
-490 284 -36 21 -267 155 -515 297 -247 143 -470 272 -495 286 -135 79 -170
90 -224 72z"/>
<path d="M5943 4619 c-41 -8 -66 -20 -308 -161 -71 -41 -220 -127 -330 -190
-110 -64 -218 -126 -241 -139 -22 -13 -123 -71 -223 -129 -100 -58 -196 -113
-213 -123 -133 -78 -749 -433 -772 -445 -47 -24 -132 -117 -169 -184 -69 -123
-66 -58 -64 -1311 2 -1074 3 -1134 20 -1169 24 -47 73 -72 129 -64 25 4 95 37
182 87 77 45 157 90 176 101 19 11 195 113 390 226 195 112 371 214 390 225
19 10 73 42 120 70 94 55 145 85 175 101 11 6 173 99 359 206 410 237 446 268
508 445 l28 80 0 1130 c-1 1070 -1 1132 -19 1170 -28 63 -71 86 -138 74z"/>
</g>
</svg>
