<?xml version="1.0" standalone="no"?>
<!DOCTYPE svg PUBLIC "-//W3C//DTD SVG 20010904//EN"
 "http://www.w3.org/TR/2001/REC-SVG-20010904/DTD/svg10.dtd">
<svg version="1.0" xmlns="http://www.w3.org/2000/svg"
 width="1024.000000pt" height="1024.000000pt" viewBox="0 0 1024.000000 1024.000000"
 preserveAspectRatio="xMidYMid meet">
<metadata>
Created by potrace 1.11, written by Peter Selinger 2001-2013
</metadata>
<g transform="translate(0.000000,1024.000000) scale(0.100000,-0.100000)"
fill="#000000" stroke="none">
<path d="M5045 9423 c-130 -8 -236 -47 -407 -148 -10 -5 -68 -39 -130 -75 -62
-35 -122 -70 -133 -77 -11 -7 -26 -15 -34 -19 -8 -4 -97 -56 -199 -116 -101
-59 -186 -108 -187 -108 -2 0 -63 -36 -138 -79 -74 -43 -154 -90 -178 -104
-24 -13 -199 -114 -389 -225 -190 -110 -361 -209 -380 -220 -19 -11 -75 -43
-125 -72 -98 -57 -129 -75 -220 -127 -33 -19 -76 -43 -95 -55 -19 -11 -205
-119 -412 -239 -366 -212 -404 -236 -455 -289 -68 -72 -87 -194 -44 -282 39
-81 94 -127 271 -226 36 -20 335 -193 590 -340 25 -15 61 -36 81 -47 28 -16
178 -103 249 -145 36 -21 138 -80 170 -98 19 -11 76 -43 125 -72 50 -29 106
-61 125 -72 19 -11 64 -37 100 -58 36 -21 81 -47 100 -57 19 -11 208 -120 420
-243 212 -123 444 -257 515 -298 72 -41 202 -116 290 -167 292 -169 338 -185
535 -191 134 -3 203 6 288 37 76 28 105 43 430 231 161 93 307 177 325 187 62
35 332 191 347 200 21 13 720 417 813 470 18 10 161 93 320 185 158 92 302
175 320 185 17 10 73 42 122 71 50 29 108 62 130 75 242 136 431 253 466 288
69 69 99 164 78 256 -10 46 -63 120 -112 158 -38 28 -363 223 -373 223 -3 0
-23 11 -45 26 -22 14 -57 34 -77 46 -107 59 -371 213 -394 229 -15 11 -29 19
-31 19 -3 0 -56 30 -118 66 -63 37 -130 76 -149 86 -19 11 -75 44 -125 73 -49
29 -110 63 -135 77 -25 14 -184 106 -355 205 -170 100 -329 191 -351 204 -43
25 -501 290 -557 323 -427 248 -521 298 -592 309 -87 15 -115 18 -170 20 -33
1 -78 1 -100 0z m267 -423 c220 -50 358 -155 364 -274 2 -54 -16 -93 -68 -144
-101 -101 -298 -161 -513 -156 -136 3 -147 4 -229 28 -131 39 -251 121 -283
195 -67 159 105 307 422 363 43 8 257 -1 307 -12z m1233 -715 c86 -24 193 -77
242 -119 46 -41 83 -108 83 -152 -1 -78 -74 -165 -184 -219 -266 -129 -664
-98 -852 68 -96 84 -106 178 -28 273 42 53 192 130 301 155 98 23 343 20 438
-6z m-3619 -690 c176 -36 313 -119 357 -217 70 -152 -111 -307 -413 -352 -322
-48 -671 92 -685 275 -3 47 7 78 43 126 50 68 192 140 332 168 81 17 285 17
366 0z m4754 -4 c172 -35 319 -122 360 -214 60 -133 -71 -273 -315 -338 -120
-32 -328 -32 -450 0 -201 52 -336 160 -335 268 1 128 194 260 427 291 78 11
245 7 313 -7z m-3648 -695 c169 -13 338 -84 411 -172 37 -45 49 -72 49 -118 3
-159 -248 -298 -542 -300 -184 -1 -312 29 -430 99 -225 136 -182 326 99 441
72 29 134 42 240 50 42 4 78 8 79 9 2 2 9 2 15 0 7 -2 42 -6 79 -9z m1282
-716 c218 -50 352 -148 361 -264 9 -104 -81 -198 -250 -261 -166 -63 -423 -67
-584 -11 -135 48 -220 111 -256 189 -36 77 -18 140 63 214 78 72 181 113 367
146 41 7 250 -2 299 -13z"/>
<path d="M1397 6819 c-82 -49 -117 -95 -141 -184 -14 -53 -16 -239 -16 -1705
1 -1732 -1 -1679 42 -1795 60 -164 177 -323 298 -405 44 -29 375 -224 540
-317 19 -11 91 -53 160 -93 69 -40 247 -142 395 -228 149 -85 287 -166 307
-179 21 -12 40 -23 42 -23 3 0 65 -35 138 -78 126 -74 633 -367 708 -410 39
-22 585 -338 640 -370 106 -63 189 -91 256 -87 133 8 230 103 252 247 4 29 7
787 6 1683 -1 1825 4 1685 -75 1853 -66 143 -160 259 -270 333 -42 29 -1309
765 -1509 877 -25 14 -144 82 -265 152 -121 70 -377 218 -570 329 -192 111
-357 206 -365 211 -109 67 -316 179 -356 192 -29 10 -78 19 -111 21 -50 3 -65
0 -106 -24z m512 -599 c76 -30 125 -64 205 -143 151 -150 250 -349 263 -533
18 -258 -120 -337 -348 -199 -215 131 -395 458 -384 700 8 169 109 236 264
175z m2254 -1299 c255 -117 470 -464 454 -736 -5 -94 -25 -141 -73 -174 -138
-95 -403 77 -558 361 -38 69 -72 152 -81 195 -34 168 -26 265 28 333 46 59
131 67 230 21z m-1109 -576 c51 -23 146 -92 192 -141 35 -37 111 -137 132
-176 11 -19 25 -44 31 -54 73 -130 109 -325 81 -437 -15 -59 -68 -113 -119
-122 -156 -26 -390 157 -514 401 -103 204 -123 415 -48 505 53 62 139 71 245
24z m-1168 -570 c182 -54 381 -284 465 -540 19 -56 24 -92 24 -180 0 -101 -2
-114 -27 -155 -14 -25 -39 -52 -54 -60 -40 -22 -134 -17 -192 10 -255 119
-467 459 -456 733 4 103 29 158 87 186 50 25 86 26 153 6z m2274 -1306 c247
-106 463 -448 457 -722 -3 -155 -48 -212 -165 -212 -95 1 -188 51 -298 160
-114 112 -181 219 -233 371 -53 155 -47 316 15 385 45 51 131 58 224 18z"/>
<path d="M8684 6837 c-70 -11 -153 -55 -639 -337 -231 -133 -532 -308 -670
-388 -137 -79 -337 -194 -443 -256 -106 -61 -209 -121 -230 -132 -20 -12 -194
-113 -387 -224 -192 -111 -429 -248 -525 -303 -229 -131 -275 -163 -344 -237
-100 -109 -192 -277 -211 -390 -3 -16 -8 -45 -11 -62 -9 -49 -8 -3254 1 -3318
29 -216 238 -309 440 -195 22 12 56 31 75 42 44 25 336 194 455 263 50 29 108
62 130 75 22 12 94 54 160 92 66 38 298 172 515 298 217 125 537 310 710 410
173 101 333 193 355 205 22 13 54 31 70 41 17 11 36 22 44 26 8 3 64 36 125
71 61 36 136 78 166 95 193 106 294 188 376 302 79 110 139 262 150 379 9 89
8 3222 -1 3292 -13 109 -71 195 -158 235 -15 7 -27 15 -27 18 0 9 -68 8 -126
-2z m-194 -602 c125 -38 143 -274 39 -504 -130 -286 -404 -502 -562 -442 -127
49 -140 282 -29 520 126 272 391 476 552 426z m-2220 -1300 c117 -61 115 -314
-4 -545 -62 -119 -165 -244 -257 -312 -181 -134 -335 -119 -377 36 -18 64 -7
201 23 291 46 140 135 283 240 389 54 53 163 126 214 142 52 17 127 16 161 -1z
m2244 -1166 c91 -54 110 -244 42 -428 -47 -127 -150 -286 -240 -369 -84 -77
-224 -152 -276 -147 -8 1 -30 3 -49 3 -77 4 -135 114 -130 244 8 174 123 414
268 558 132 131 298 191 385 139z m-2260 -1283 c97 -40 129 -190 81 -374 -62
-240 -272 -497 -461 -563 -69 -24 -107 -24 -160 2 -66 32 -89 87 -88 214 0
104 16 171 68 290 120 270 410 494 560 431z"/>
</g>
</svg>
