<?xml version="1.0" standalone="no"?>
<!DOCTYPE svg PUBLIC "-//W3C//DTD SVG 20010904//EN"
 "http://www.w3.org/TR/2001/REC-SVG-20010904/DTD/svg10.dtd">
<svg version="1.0" xmlns="http://www.w3.org/2000/svg"
 width="512.000000pt" height="512.000000pt" viewBox="0 0 512.000000 512.000000"
 preserveAspectRatio="xMidYMid meet">
<metadata>
Created by potrace 1.11, written by Peter Selinger 2001-2013
</metadata>
<g transform="translate(0.000000,512.000000) scale(0.100000,-0.100000)"
fill="#000000" stroke="none">
<path d="M3646 4763 c-1 -2 -177 -6 -686 -18 -107 -2 -287 -7 -400 -10 -113
-3 -308 -8 -435 -11 -126 -3 -253 -6 -282 -7 -49 -2 -55 -5 -125 -71 -84 -81
-395 -377 -542 -517 -134 -128 -195 -186 -361 -343 -151 -144 -148 -141 -401
-382 -93 -89 -194 -185 -224 -213 -30 -28 -53 -51 -50 -52 24 -3 67 -8 130
-13 164 -14 187 -16 235 -21 28 -2 93 -7 145 -11 52 -4 98 -12 102 -18 5 -8 8
-7 8 2 0 7 3 11 8 9 4 -3 43 -8 87 -11 44 -4 100 -9 125 -11 25 -2 79 -7 120
-11 41 -3 91 -7 110 -9 19 -2 71 -6 115 -9 44 -4 100 -9 125 -11 25 -3 74 -7
110 -10 73 -6 151 -13 225 -20 77 -7 153 -14 240 -20 44 -4 96 -8 115 -10 19
-2 67 -7 105 -10 84 -7 147 -12 236 -21 l66 -6 63 74 c34 40 72 84 84 98 11
14 95 113 186 220 90 107 167 197 170 200 3 3 39 46 80 95 41 50 77 92 80 95
3 3 43 50 90 105 47 55 87 102 90 105 3 3 41 48 85 100 44 52 82 97 85 100 3
3 27 32 55 65 27 33 52 62 55 65 3 3 25 30 50 60 25 30 49 60 55 66 5 6 55 64
110 129 55 65 129 152 164 193 l64 74 -232 -4 c-128 -1 -233 -4 -235 -5z
m-1258 -688 c69 -69 -278 -297 -470 -309 -40 -3 -51 0 -63 17 -13 19 -13 24 2
46 57 88 236 199 388 242 55 15 130 17 143 4z"/>
<path d="M4090 4339 c-135 -160 -254 -301 -265 -314 -11 -12 -29 -33 -40 -46
-100 -120 -232 -276 -241 -284 -5 -5 -35 -39 -64 -75 -30 -36 -61 -72 -70 -81
-8 -9 -24 -27 -34 -40 -11 -13 -42 -51 -70 -84 -28 -33 -60 -71 -71 -84 -11
-13 -38 -45 -60 -71 -57 -66 -76 -89 -194 -230 -58 -69 -108 -127 -111 -130
-22 -20 -100 -119 -100 -128 0 -7 19 -51 41 -99 45 -96 87 -187 126 -273 14
-30 50 -106 79 -168 30 -63 54 -115 54 -117 0 -3 59 -130 131 -283 27 -57 49
-105 49 -107 0 -2 27 -61 60 -131 33 -69 60 -128 60 -129 0 -2 22 -50 49 -107
27 -56 71 -152 99 -213 28 -60 73 -159 102 -219 28 -60 48 -116 46 -123 -3 -8
-2 -12 3 -9 5 3 18 -13 28 -37 11 -23 46 -99 79 -169 32 -71 61 -128 64 -128
3 0 28 35 54 77 115 188 135 219 145 230 6 7 11 15 11 18 0 4 15 30 33 58 19
29 83 131 142 227 60 96 129 209 155 250 498 805 608 982 633 1019 l30 43 -78
252 c-43 138 -83 269 -90 291 -7 22 -24 76 -38 120 -13 44 -45 148 -71 230
-26 83 -58 186 -71 230 -14 44 -45 145 -70 225 -26 80 -58 183 -72 230 -14 47
-32 103 -39 125 -24 70 -156 499 -161 523 -3 12 -8 22 -12 22 -3 0 -116 -131
-251 -291z m183 -379 c14 -11 33 -39 42 -63 71 -188 -69 -495 -196 -427 -57
31 -85 183 -55 299 44 166 135 249 209 191z m-722 -1056 c84 -89 40 -351 -76
-453 -60 -53 -114 -39 -156 39 -22 42 -16 194 11 265 60 158 153 221 221 149z
m616 -114 c25 -18 54 -100 57 -161 8 -166 -101 -357 -190 -335 -149 38 -109
443 51 511 30 13 46 10 82 -15z m605 -117 c64 -56 67 -230 7 -357 -45 -98
-117 -151 -176 -132 -37 12 -67 84 -70 166 -5 209 141 408 239 323z m-708
-1085 c33 -45 49 -115 43 -190 -3 -35 -7 -70 -10 -78 -2 -8 -7 -28 -12 -45
-27 -102 -105 -182 -165 -170 -33 6 -51 25 -71 73 -68 158 30 442 152 442 31
0 42 -6 63 -32z"/>
<path d="M80 2880 c0 -4 4 -10 9 -15 5 -6 21 -32 36 -60 53 -94 70 -124 139
-242 39 -65 100 -170 136 -233 37 -63 153 -263 259 -443 105 -181 191 -333
191 -338 0 -5 4 -9 9 -9 5 0 11 -8 15 -17 3 -10 10 -25 15 -33 15 -22 317
-543 322 -555 2 -5 19 -33 37 -62 30 -47 37 -52 85 -61 28 -6 66 -13 82 -17
102 -21 375 -77 400 -81 17 -3 58 -12 93 -20 34 -7 75 -16 90 -19 15 -2 160
-32 322 -65 260 -54 323 -67 416 -86 12 -2 66 -13 120 -25 55 -11 113 -23 129
-25 17 -3 46 -9 66 -15 37 -9 135 -29 212 -43 12 -2 33 -7 47 -10 14 -3 36 -8
50 -10 14 -3 58 -12 97 -20 133 -29 135 -29 125 -9 -5 10 -73 158 -151 328
-78 171 -146 317 -150 325 -5 9 -60 128 -124 265 -63 138 -132 286 -152 330
-46 98 -85 184 -126 273 -17 37 -43 94 -59 127 -59 125 -110 237 -110 240 0 2
-24 54 -54 116 -73 155 -116 250 -127 277 -5 12 -14 22 -21 23 -7 0 -22 2 -33
4 -11 3 -54 7 -95 10 -41 3 -93 7 -115 10 -22 2 -74 7 -115 10 -41 3 -95 8
-120 10 -25 3 -74 7 -110 10 -36 3 -87 7 -115 10 -138 12 -193 17 -230 20 -66
5 -198 16 -233 20 -18 2 -74 7 -125 10 -50 4 -103 8 -117 11 -14 2 -63 6 -110
9 -47 4 -96 8 -110 10 -14 2 -65 7 -115 10 -49 4 -106 8 -125 10 -19 2 -71 7
-115 10 -44 4 -100 8 -125 11 -25 2 -79 6 -120 10 -41 3 -82 8 -90 11 -21 7
-110 9 -110 3z m2050 -382 c50 -16 131 -69 164 -108 138 -165 -21 -301 -236
-202 -111 52 -178 131 -178 213 0 37 5 50 28 73 16 14 42 29 58 32 16 3 30 7
32 9 6 6 96 -5 132 -17z m-285 -588 c153 -52 249 -186 200 -279 -69 -135 -387
-36 -445 138 -41 124 83 195 245 141z m-285 -587 c8 -3 21 -7 28 -9 21 -4 92
-53 123 -85 84 -86 82 -197 -4 -234 -20 -9 -58 -13 -102 -10 -214 11 -388 241
-250 331 47 31 141 34 205 7z"/>
</g>
</svg>
